<svg width="199" height="59" viewBox="0 0 199 59" fill="none" xmlns="http://www.w3.org/2000/svg">
<path d="M162.785 7.00071C163.173 7.28502 163.535 7.56933 163.948 7.8278C166.145 9.09426 166.869 10.5417 166.378 12.7127C165.99 14.4703 163.974 16.1761 161.932 16.2795C160.562 16.3571 159.193 16.4863 157.849 15.9435C157.228 15.6851 156.453 15.6334 155.807 15.9177C154.489 16.4863 153.972 15.6851 153.532 14.7288C153.145 13.85 152.834 12.9195 152.395 11.7306C150.999 14.7804 148.415 15.7109 145.675 16.1761C142.754 16.6672 138.36 14.8321 137.559 10.5934C137.016 7.69857 137.482 5.01055 139.782 3.04624C141.979 1.15946 144.615 0.461606 147.484 1.44376C149.578 2.16746 150.922 3.56316 151.361 5.78594C151.62 7.15579 151.335 7.80195 150.017 8.29303C148.13 8.99088 146.218 9.68873 144.305 10.309C143.426 10.5933 143.504 10.8518 144.073 11.3946C145.546 12.7386 147.252 12.7127 148.932 11.6014C149.681 11.1103 150.534 10.154 151.723 10.9035C152.111 11.162 152.085 10.7743 152.188 10.5675C152.809 9.45611 153.429 9.32688 154.437 10.0764C155.703 11.0327 156.582 12.4543 158.185 12.9712C158.882 13.2038 159.554 13.4881 160.304 13.4106C160.769 13.3589 161.286 13.2555 161.415 12.6869C161.545 12.0666 160.976 11.8857 160.562 11.7306C159.399 11.2912 158.21 10.9294 157.047 10.49C156.401 10.2573 155.781 9.94719 155.186 9.58534C153.274 8.44811 152.55 6.87148 152.964 4.93301C153.3 3.3047 155.109 1.77977 157.022 1.62469C158.21 1.5213 159.425 1.44376 160.588 1.93484C161.079 2.14161 161.674 2.27085 162.087 1.98654C163.018 1.36623 163.561 1.909 164 2.55516C164.62 3.48562 165.163 4.44193 165.654 5.44994C165.938 6.07025 166.068 6.79395 165.422 7.33672C164.75 7.90534 164.233 7.4401 163.69 7.1041C163.483 6.97487 163.225 6.89733 162.992 6.79395C162.062 5.34655 160.614 4.75209 159.012 4.54532C158.727 4.51947 158.288 4.36439 158.21 5.0364C158.159 5.57917 158.34 5.68255 158.727 5.83763C160.071 6.32871 161.364 6.89733 162.785 7.00071ZM146.166 5.44994C146.063 4.9847 145.753 4.41609 145.055 4.23516C144.15 4.00255 143.349 4.3127 142.935 5.06224C142.548 5.78594 141.927 6.69056 142.393 7.4401C142.78 8.08626 143.556 7.41426 144.15 7.25918C144.667 7.1041 145.184 6.84564 145.675 6.58717C146.037 6.40625 146.244 6.09609 146.166 5.44994Z" fill="#B7814B" stroke="#664822" stroke-miterlimit="10"/>
<path d="M9.02565 29.2285C8.09518 30.1073 6.98379 29.9522 5.8724 29.7196C4.65763 29.4611 3.44285 29.1768 2.22808 28.9184C1.58192 28.7891 1.09084 28.479 1.0133 27.7811C0.935765 27.0833 1.19423 26.5922 1.86623 26.3854C2.7967 26.0753 3.00347 25.2224 3.18439 24.447C3.52039 23.1288 3.70132 21.759 3.98563 20.4149C4.11486 19.7946 3.88224 19.3552 3.4687 18.9159C2.61577 17.9595 2.745 17.1066 3.93393 16.5897C5.27794 15.9952 6.72533 15.7626 8.19857 15.5817C8.87057 15.5041 9.36165 15.8918 9.62012 16.4863C9.87858 17.1325 10.2146 17.1066 10.809 16.9257C13.2127 16.2278 15.3321 16.5122 16.8054 18.8125C17.0897 19.2777 17.374 19.1743 17.7875 18.9934C22.2589 17.1583 25.3347 19.2519 25.3347 24.111C25.3347 25.6359 25.102 27.1091 24.8953 28.6082C24.7402 29.7455 24.7143 30.831 25.619 31.7356C26.0067 32.1233 26.1617 32.6144 25.8257 33.1313C25.4897 33.6482 24.9987 33.9326 24.4042 33.7775C22.6466 33.3898 20.8891 32.9504 19.1574 32.511C18.5371 32.3559 18.0202 32.0199 17.9685 31.3221C17.9426 30.6759 18.382 30.3141 18.9248 30.0815C19.39 29.9005 19.7777 29.6679 19.8294 29.0993C20.0103 27.471 20.2171 25.8427 20.3463 24.2143C20.4239 23.2322 20.2171 22.1983 19.0282 22.0433C17.8651 21.8882 17.374 22.8186 17.1155 23.775C16.8054 24.8864 16.5728 26.0236 16.366 27.1867C16.2109 28.0396 16.1851 28.8925 16.7795 29.6421C17.1672 30.159 17.2706 30.8052 16.8571 31.3221C16.4177 31.8907 15.8491 31.9165 15.1254 31.7098C13.9364 31.3738 12.7475 30.9861 11.481 30.9344C10.2663 30.9085 9.3875 30.4175 9.02565 29.2285C9.62012 28.4273 10.8607 28.2205 11.145 27.2384C11.6361 25.61 11.9721 23.9042 12.2823 22.2242C12.4115 21.578 12.4632 20.7509 11.5586 20.5183C10.7057 20.2857 9.82689 20.3116 9.23242 21.1386C8.74134 21.8106 8.58626 22.586 8.40534 23.4131C7.96595 25.455 7.50072 27.4193 9.02565 29.2285Z" fill="#B7814B"/>
<path d="M9.02565 29.2285C8.09518 30.1073 6.98379 29.9522 5.8724 29.7196C4.65763 29.4611 3.44285 29.1768 2.22808 28.9184C1.58192 28.7891 1.09084 28.479 1.0133 27.7811C0.935765 27.0833 1.19423 26.5922 1.86623 26.3854C2.7967 26.0753 3.00347 25.2224 3.18439 24.447C3.52039 23.1288 3.70132 21.759 3.98563 20.4149C4.11486 19.7946 3.88224 19.3552 3.4687 18.9159C2.61577 17.9595 2.745 17.1066 3.93393 16.5897C5.27794 15.9952 6.72533 15.7626 8.19857 15.5817C8.87057 15.5041 9.36165 15.8918 9.62012 16.4863C9.87858 17.1325 10.2146 17.1066 10.809 16.9257C13.2127 16.2278 15.3321 16.5122 16.8054 18.8125C17.0897 19.2777 17.374 19.1743 17.7875 18.9934C22.2589 17.1583 25.3347 19.2519 25.3347 24.111C25.3347 25.6359 25.102 27.1091 24.8953 28.6082C24.7402 29.7455 24.7143 30.831 25.619 31.7356C26.0067 32.1233 26.1617 32.6144 25.8257 33.1313C25.4897 33.6482 24.9987 33.9326 24.4042 33.7775C22.6466 33.3898 20.8891 32.9504 19.1574 32.511C18.5371 32.3559 18.0202 32.0199 17.9685 31.3221C17.9426 30.6759 18.382 30.3141 18.9248 30.0815C19.39 29.9005 19.7777 29.6679 19.8294 29.0993C20.0103 27.471 20.2171 25.8427 20.3463 24.2143C20.4239 23.2322 20.2171 22.1983 19.0282 22.0433C17.8651 21.8882 17.374 22.8186 17.1155 23.775C16.8054 24.8864 16.5728 26.0236 16.366 27.1867C16.2109 28.0396 16.1851 28.8925 16.7795 29.6421C17.1672 30.159 17.2706 30.8052 16.8571 31.3221C16.4177 31.8907 15.8491 31.9165 15.1254 31.7098C13.9364 31.3738 12.7475 30.9861 11.481 30.9344C10.2663 30.9085 9.3875 30.4175 9.02565 29.2285ZM9.02565 29.2285C9.62012 28.4273 10.8607 28.2205 11.145 27.2384C11.6361 25.61 11.9721 23.9042 12.2823 22.2242C12.4115 21.578 12.4632 20.7509 11.5586 20.5183C10.7057 20.2857 9.82689 20.3116 9.23242 21.1386C8.74134 21.8106 8.58626 22.586 8.40534 23.4131C7.96595 25.455 7.50072 27.4193 9.02565 29.2285Z" stroke="#664822" stroke-miterlimit="10"/>
<path d="M68.4463 47.0366C68.4463 43.4182 70.8242 40.4717 74.1842 39.748C75.063 39.5671 75.89 39.2311 76.8205 39.5929C77.2599 39.7738 77.4925 39.412 77.3633 39.0243C77.079 38.1972 76.9756 37.2667 75.8383 37.0083C74.546 36.6981 74.2617 35.6643 75.218 34.708C76.2777 33.6224 77.5442 32.7695 78.9141 32.1233C80.0255 31.5806 80.9042 32.0975 81.2661 33.519C81.783 35.5092 82.1965 37.5252 82.6876 39.5412C83.2821 41.9966 83.9024 44.452 84.471 46.9332C84.6519 47.7086 85.1689 48.0446 85.8409 48.3548C86.9781 48.8976 87.1332 49.6729 86.2544 50.5776C85.1689 51.7148 83.7215 52.3351 82.3516 53.0588C81.9381 53.2656 81.4211 53.188 81.1368 52.852C80.5424 52.1284 80.1288 52.4644 79.5861 52.9296C75.7608 56.1862 70.4882 54.6354 68.9891 49.8022C68.6789 48.8459 68.2912 47.9154 68.4463 47.0366ZM73.383 45.7185C73.5897 47.0625 74.0291 48.5616 75.3473 49.6471C76.0968 50.2674 76.9239 50.5259 77.8544 50.164C78.7848 49.8022 79.1984 49.0009 79.2759 48.0446C79.3534 46.7782 78.9399 45.5634 78.423 44.452C77.8285 43.1597 76.226 42.436 75.1147 42.7461C74.1583 42.9788 73.3571 44.2194 73.383 45.7185Z" fill="#F4B663" stroke="#664822" stroke-miterlimit="10"/>
<path d="M117.037 37.6803C116.908 41.3246 114.22 44.9689 109.774 45.0206C109.283 45.0206 108.43 44.6588 108.353 45.3824C108.275 46.1061 108.611 46.8815 109.593 47.0883C110.24 47.2175 110.86 47.6311 110.834 48.3806C110.808 49.1302 110.265 49.6471 109.516 49.7763C107.939 50.0348 106.466 50.6034 104.941 51.0686C104.243 51.2754 103.545 51.2754 103.054 50.6292C102.589 50.0089 102.848 49.4145 103.261 48.8717C103.701 48.3031 103.649 47.6311 103.468 47.0108C102.667 44.116 101.814 41.247 101.013 38.3523C100.832 37.6803 100.366 37.3959 99.7977 37.1375C98.4537 36.5172 98.2469 35.5867 99.3842 34.6821C100.496 33.8033 101.168 32.4335 102.667 31.9682C103.158 31.8131 103.571 31.6064 103.959 31.9941C104.528 32.5368 104.915 32.3818 105.458 31.8907C109.516 28.143 115.047 29.823 116.469 35.2249C116.727 36.0778 117.089 36.9307 117.037 37.6803ZM106.182 37.0083C106.13 38.559 106.595 39.8255 107.526 40.8852C108.43 41.8932 109.774 42.2034 110.782 41.6089C111.868 40.9627 112.204 39.8772 112.023 38.7141C111.842 37.6544 111.403 36.6722 110.782 35.7676C109.878 34.4236 108.766 33.855 107.681 34.2685C106.389 34.7596 106.078 35.8452 106.182 37.0083Z" fill="#F4B663" stroke="#664822" stroke-miterlimit="10"/>
<path d="M116.133 20.2082C115.771 20.3632 115.021 19.8205 114.866 20.5183C114.737 21.1903 115.15 21.8365 115.822 22.1983C116.158 22.3793 116.546 22.5343 116.805 22.7669C117.528 23.4131 117.425 24.447 116.494 24.7313C114.659 25.2999 112.773 25.7134 110.886 26.127C110.317 26.2562 109.749 26.1011 109.438 25.5067C109.154 24.9897 109.361 24.447 109.697 24.0593C110.317 23.3873 110.162 22.7153 109.93 21.914C109.206 19.226 108.585 16.5121 107.965 13.7983C107.784 12.9712 107.577 12.3251 106.595 12.0149C105.432 11.6272 105.251 10.6192 106.13 9.68873C107.009 8.75826 108.043 7.95703 109.128 7.25918C109.619 6.94902 110.265 6.7681 110.731 7.05241C111.635 7.62103 112.075 7.20749 112.798 6.63887C115.978 4.10594 120.862 4.3644 123.034 9.63704C124.559 13.3072 123.421 17.21 120.346 19.0451C119.105 19.8205 117.709 20.234 116.133 20.2082ZM115.125 9.40442C114.065 9.53365 113.16 9.9472 112.979 11.1103C112.669 12.9971 113.16 14.7288 114.298 16.202C115.461 17.7011 117.683 17.4943 118.407 15.9435C119.234 14.1601 118.33 11.0327 116.701 9.92135C116.236 9.58535 115.693 9.50781 115.125 9.40442Z" fill="#B7814B" stroke="#664822" stroke-miterlimit="10"/>
<path d="M183.178 43.2114C181.265 43.4181 179.378 42.7461 177.698 41.5314C175.321 39.8255 174.261 37.4476 174.752 34.5529C175.295 31.5288 177.052 29.4094 180.025 28.4531C183.953 27.2125 188.683 29.0734 190.467 32.5369C192.844 37.1375 189.303 43.0821 184.134 43.2114C183.902 43.2372 183.643 43.2114 183.178 43.2114ZM185.788 35.4575C185.737 34.2944 185.556 33.1572 184.858 32.175C184.005 30.9861 182.79 30.7535 181.756 31.5805C179.818 33.1055 179.585 37.732 181.343 39.4895C182.583 40.7301 184.134 40.4975 184.935 38.9209C185.478 37.8612 185.788 36.6981 185.788 35.4575Z" fill="#F4B663" stroke="#664822" stroke-miterlimit="10"/>
<path d="M35.2596 34.7338C31.5378 34.6821 29.0565 33.5707 27.4282 30.7017C25.4639 27.135 27.1697 22.5343 30.8141 20.5959C33.7347 19.0451 38.3095 19.4845 40.7649 21.6297C44.616 24.9639 43.5821 31.6839 38.8781 33.855C37.5599 34.4753 36.1642 34.8372 35.2596 34.7338ZM32.003 26.799C32.003 28.2205 32.4682 29.6162 33.2436 30.6759C34.2775 32.0458 36.3452 32.0199 37.1464 30.6501C38.5938 28.1947 37.5341 24.8346 36.1901 23.4389C34.8719 22.0691 33.2178 22.4051 32.4941 24.1626C32.1581 24.9897 31.9771 25.8685 32.003 26.799Z" fill="#B7814B" stroke="#664822" stroke-miterlimit="10"/>
<path d="M189.2 6.97488C193.206 6.61304 196.67 9.53367 197.523 11.8081C199.125 16.0469 196.644 20.906 192.121 21.8882C187.727 22.8445 182.868 20.1565 181.731 16.3571C180.723 13.0488 183.333 7.23335 188.166 6.97488C188.554 6.97488 188.993 6.97488 189.2 6.97488ZM192.715 14.7546C192.715 13.2814 192.25 11.6272 191.759 10.9552C190.751 9.58536 189.278 9.55951 188.218 10.8518C186.641 12.7903 186.745 14.9872 187.262 17.21C187.494 18.218 188.399 18.8642 189.407 19.0451C190.415 19.226 191.087 18.5282 191.604 17.7528C192.302 16.7448 192.664 15.6075 192.715 14.7546Z" fill="#B7814B" stroke="#664822" stroke-miterlimit="10"/>
<path d="M58.3662 48.3548C58.5213 48.5098 58.6505 48.6649 58.8314 48.7683C60.5373 49.7246 61.6487 51.0428 61.3902 53.1363C61.1059 55.3332 59.581 56.4446 57.6425 57.1425C56.376 57.5819 55.0579 57.7628 53.7139 57.6853C52.9902 57.6594 52.1631 57.556 51.5428 57.8403C50.2246 58.4348 49.5009 57.892 48.9065 56.8582C48.3378 55.9019 47.7692 54.9455 47.2523 53.9375C46.9421 53.3431 46.8388 52.6711 47.4591 52.18C48.0794 51.6631 48.7514 51.8182 49.3717 52.2317C50.0178 52.6711 50.6382 53.1105 51.2585 53.5757C52.344 54.3769 53.5846 54.6612 54.9028 54.5837C55.5748 54.5579 56.4019 54.5062 56.4536 53.7566C56.5053 52.9554 55.6523 52.852 55.032 52.8003C53.4037 52.6711 51.8271 52.2575 50.2505 51.7923C48.1828 51.172 46.9421 49.5954 46.9421 47.6827C46.9421 45.8477 48.312 44.0643 50.2505 43.5473C51.6462 43.1596 53.0419 42.6427 54.5409 43.263C54.8769 43.3923 55.213 43.3406 55.5231 43.1596C56.6603 42.436 57.4616 42.9529 58.1594 43.8833C58.5988 44.4778 59.0382 45.0464 59.4776 45.6409C60.6148 47.0366 60.1754 48.0963 58.3662 48.3548C57.6167 47.5794 56.5311 47.3467 55.7299 46.804C54.7219 46.1061 53.7914 46.0544 52.7317 46.0803C52.344 46.0803 51.9046 46.2095 51.9305 46.7264C51.9563 47.14 52.344 47.2434 52.68 47.3209C54.5926 47.6569 56.4794 47.9929 58.3662 48.3548Z" fill="#F4B663"/>
<path d="M58.3662 48.3548C58.5213 48.5098 58.6505 48.6649 58.8314 48.7683C60.5373 49.7246 61.6487 51.0428 61.3902 53.1363C61.1059 55.3332 59.581 56.4446 57.6425 57.1425C56.376 57.5819 55.0579 57.7628 53.7139 57.6853C52.9902 57.6594 52.1631 57.556 51.5428 57.8403C50.2246 58.4348 49.5009 57.892 48.9065 56.8582C48.3378 55.9019 47.7692 54.9455 47.2523 53.9375C46.9421 53.3431 46.8388 52.6711 47.4591 52.18C48.0794 51.6631 48.7514 51.8182 49.3717 52.2317C50.0178 52.6711 50.6382 53.1105 51.2585 53.5757C52.344 54.3769 53.5846 54.6612 54.9028 54.5837C55.5748 54.5579 56.4019 54.5062 56.4536 53.7566C56.5053 52.9554 55.6523 52.852 55.032 52.8003C53.4037 52.6711 51.8271 52.2575 50.2505 51.7923C48.1828 51.172 46.9421 49.5954 46.9421 47.6827C46.9421 45.8477 48.312 44.0643 50.2505 43.5473C51.6462 43.1596 53.0419 42.6427 54.5409 43.263C54.8769 43.3923 55.213 43.3406 55.5231 43.1596C56.6603 42.436 57.4616 42.9529 58.1594 43.8833C58.5988 44.4778 59.0382 45.0464 59.4776 45.6409C60.6148 47.0366 60.1754 48.0963 58.3662 48.3548ZM58.3662 48.3548C57.6167 47.5794 56.5311 47.3467 55.7299 46.804C54.7219 46.1061 53.7914 46.0544 52.7317 46.0803C52.344 46.0803 51.9046 46.2095 51.9305 46.7264C51.9563 47.14 52.344 47.2434 52.68 47.3209C54.5926 47.6569 56.4794 47.9929 58.3662 48.3548Z" stroke="#664822" stroke-miterlimit="10"/>
<path d="M168.239 40.1098C167.153 40.1357 166.094 40.1357 165.086 39.6963C164.594 39.4895 164 39.2827 163.457 39.4637C162.036 39.9289 161.338 39.2052 160.95 37.9904C160.588 36.9307 160.252 35.871 159.994 34.7855C159.839 34.191 159.968 33.519 160.588 33.2089C161.234 32.8729 161.855 33.0796 162.346 33.5707C163.018 34.2427 163.664 34.9147 164.31 35.6126C165.318 36.6464 166.533 37.2409 168.006 37.1375C168.42 37.1117 168.937 37.0341 169.066 36.543C169.195 36.0003 168.678 35.8193 168.291 35.6643C167.024 35.1215 165.758 34.6046 164.491 34.0618C163.406 33.5966 162.423 32.9504 161.7 32.0458C160.769 30.8827 160.382 29.5904 161.105 28.0913C161.881 26.4888 163.147 25.5842 164.879 25.3516C167.05 25.0673 169.092 26.0494 171.263 25.9202C171.625 25.8944 171.935 26.1787 172.116 26.463C172.788 27.5485 173.434 28.6858 173.77 29.9264C173.951 30.5467 173.951 31.167 173.305 31.503C172.71 31.8132 172.116 31.6581 171.651 31.1929C170.823 30.3916 169.919 29.6679 168.962 28.9959C168.394 28.6082 167.799 28.4532 167.179 28.3498C166.74 28.2722 166.249 28.2722 166.094 28.7892C165.938 29.2802 166.378 29.487 166.714 29.6421C168.006 30.2107 169.324 30.7018 170.617 31.2962C171.676 31.7873 172.736 32.2784 173.408 33.2864C175.321 36.1812 173.356 39.8514 169.79 40.1098C169.273 40.1357 168.73 40.1098 168.239 40.1098Z" fill="#F4B663" stroke="#664822" stroke-miterlimit="10"/>
<path d="M100.237 14.4962C102.046 14.4703 103.856 14.3411 105.484 15.4266C107.035 16.4605 107.707 18.3731 107.164 20.1306C106.259 23.0771 103.778 23.775 101.219 24.3177C100.134 24.5504 99.0224 24.5245 98.1437 25.4291C97.5492 26.0494 96.8772 25.6101 96.4378 25.1707C95.4815 24.1885 94.5769 23.1547 93.6981 22.095C93.2587 21.578 93.052 20.9577 93.6206 20.3633C94.1375 19.7946 94.7837 19.8205 95.404 20.1565C96.4637 20.7251 97.6267 21.0353 98.7898 21.3971C99.8237 21.7073 100.728 21.5263 101.685 21.1903C102.176 21.0094 102.718 20.7768 102.641 20.1565C102.563 19.5103 101.969 19.4845 101.426 19.4328C99.7461 19.3036 98.1178 19.7171 96.412 19.4845C94.0083 19.1485 92.535 18.1663 92.0698 16.1762C91.6304 14.3411 92.6643 12.4285 94.6544 11.2912C95.3006 10.9294 95.9726 10.6968 96.7221 10.5934C97.8335 10.4383 98.9191 10.2315 99.9012 9.61121C100.056 9.53367 100.211 9.45613 100.366 9.40444C101.374 9.17182 104.838 12.0408 104.812 13.0746C104.786 13.8242 103.933 14.3411 102.925 14.1085C101.53 13.7466 100.211 12.9712 98.6864 13.2038C97.9628 13.3072 96.7738 13.0488 96.7738 13.9792C96.7738 14.9614 97.9369 14.3928 98.5831 14.4962C99.1 14.5737 99.6686 14.4962 100.237 14.4962Z" fill="#B7814B" stroke="#664822" stroke-miterlimit="10"/>
<path d="M144.997 34.2658C145.463 32.4307 146.264 32.1464 147.66 33.4388C148.849 34.5243 150.115 35.4548 151.614 36.0234C152.079 36.2043 152.519 36.3077 153.01 36.256C153.578 36.1785 154.225 35.9458 154.302 35.3772C154.405 34.7311 153.708 34.6018 153.242 34.4468C151.743 33.8781 150.141 33.6972 148.693 32.9994C148.306 32.8184 147.918 32.6375 147.556 32.4049C146.161 31.4744 145.101 30.2597 145.359 28.4763C145.669 26.4603 147.272 25.0129 149.236 24.651C150.27 24.4701 151.278 24.4442 152.312 24.5993C153.139 24.7286 154.018 24.9612 154.845 24.5735C154.948 24.5218 155.103 24.5218 155.233 24.5476C156.37 24.5993 158.877 28.2953 158.489 29.355C158.231 30.1046 157.352 30.3372 156.577 29.8978C155.465 29.2517 154.535 28.2953 153.32 27.8043C152.674 27.5458 152.028 27.3132 151.33 27.339C150.968 27.3649 150.606 27.4683 150.529 27.856C150.425 28.2953 150.787 28.4504 151.123 28.5538C152.26 28.9157 153.423 29.2258 154.561 29.6135C156.421 30.2597 158.334 30.88 159.135 33.0252C159.833 34.8603 158.696 37.5225 156.887 38.3237C154.741 39.28 152.545 39.2542 150.322 38.8148C149.805 38.7114 149.314 38.6855 148.823 38.9182C147.685 39.4351 147.013 38.8923 146.548 37.9102C146.031 36.7212 145.514 35.4806 144.997 34.2658Z" fill="#F4B663" stroke="#664822" stroke-miterlimit="10"/>
<path d="M37.5083 43.1338C38.904 43.5474 40.3772 43.3406 41.8505 43.3664C42.7293 43.3664 43.3237 43.7283 43.7114 44.5037C44.1767 45.4083 44.7711 46.2612 45.133 47.2434C45.3914 47.9412 45.1588 48.4323 44.6936 48.8458C44.1508 49.3111 43.6339 49.0009 43.1945 48.6391C42.264 47.8637 41.3077 47.14 40.2222 46.5972C39.5502 46.2612 38.8782 46.0028 38.1286 46.1061C37.7409 46.1578 37.2757 46.2612 37.1982 46.6748C37.1206 47.1142 37.6117 47.1917 37.896 47.2951C39.4726 47.8637 41.0493 48.3806 42.6517 48.9492C44.7453 49.6988 45.96 51.172 45.9859 53.0588C46.0376 55.3333 44.4868 57.1684 42.109 57.6336C40.2739 57.9954 38.4388 57.9954 36.6295 57.4268C36.216 57.2976 35.88 57.2976 35.544 57.556C34.5101 58.3056 33.8123 57.7111 33.3471 56.8582C32.7784 55.7985 32.3649 54.6613 31.9255 53.5499C31.6412 52.8262 31.5378 52.0508 32.3132 51.5856C33.0886 51.1203 33.7606 51.4305 34.3551 52.0766C35.5182 53.3173 36.8105 54.3769 38.4905 54.8422C38.8523 54.9456 39.24 55.0231 39.6277 55.0231C40.2222 55.0231 40.7908 54.7905 40.92 54.1702C41.0493 53.4723 40.3772 53.3689 39.912 53.2139C38.4129 52.7228 36.8363 52.4126 35.3889 51.7148C34.8203 51.4305 34.2 51.1462 33.7606 50.7068C32.7526 49.7505 31.7704 48.6908 32.1323 47.14C32.5458 45.3308 33.6572 44.0643 35.4665 43.5215C36.0868 43.2889 36.7846 43.2631 37.5083 43.1338Z" fill="#F4B663" stroke="#664822" stroke-miterlimit="10"/>
<path d="M172.969 3.35639C174.028 3.27885 175.14 3.48562 176.199 3.87332C176.484 3.9767 176.794 4.08009 177.078 4.05424C178.681 3.95086 179.327 4.33855 179.895 5.7601C180.154 6.40626 180.412 7.02657 180.645 7.67272C180.903 8.39642 181.24 9.27519 180.412 9.76627C179.611 10.2315 178.836 9.81796 178.293 9.06842C177.621 8.13796 176.794 7.41426 175.786 6.89734C175.398 6.69057 175.011 6.56133 174.597 6.4321C174.106 6.27702 173.486 6.12195 173.227 6.69056C172.943 7.31088 173.615 7.46595 174.003 7.67272C175.243 8.29303 176.484 8.83581 177.724 9.45612C180.671 10.8777 181.808 13.7208 180.283 16.0986C179.068 18.0112 177.052 18.4248 174.959 18.3214C173.77 18.2697 172.555 18.0112 171.47 17.4943C170.901 17.21 170.384 17.1325 169.764 17.4168C168.937 17.8045 168.316 17.3392 168.006 16.6155C167.412 15.2457 167.102 13.7466 166.817 12.2734C166.688 11.5497 167.127 11.0586 167.774 10.7743C168.446 10.4641 168.833 10.9035 169.195 11.3429C169.764 11.9891 170.307 12.6611 170.823 13.3331C171.702 14.4186 172.839 15.0131 174.183 15.3491C174.933 15.53 175.553 15.3232 175.812 14.6771C176.07 14.0309 175.347 13.8241 174.933 13.5915C173.434 12.7644 171.728 12.2992 170.332 11.2912C168.161 9.71458 167.541 8.18965 168.135 6.27702C168.549 4.75209 170.539 3.07208 172.969 3.35639Z" fill="#B7814B" stroke="#664822" stroke-miterlimit="10"/>
<path d="M145.21 34.1393C145.365 35.1473 145.08 35.9744 144.434 36.7498C141.643 40.1873 135.672 40.7043 132.493 37.7319C129.728 35.1732 129.366 30.0039 132.002 27.1608C134.639 24.3177 139.162 23.5165 142.186 25.8943C143.375 26.8248 143.995 28.0654 144.357 29.4611C144.615 30.495 143.892 31.1153 143.09 31.4771C141.617 32.175 140.092 32.7436 138.567 33.3639C138.438 33.4156 138.309 33.4156 138.205 33.4931C137.74 33.8292 136.732 33.8033 136.81 34.3978C136.913 35.199 137.818 35.5609 138.567 35.6384C140.066 35.7935 141.565 35.871 142.703 34.4753C143.375 33.6482 144.331 33.7258 145.21 34.1393ZM135.388 29.823C135.362 31.1928 135.569 31.3479 136.784 30.831C137.301 30.6242 137.792 30.3916 138.309 30.159C138.955 29.8747 139.032 29.3836 138.8 28.7891C138.464 27.9104 137.766 27.626 136.939 27.7553C135.75 27.9362 135.388 28.815 135.388 29.823Z" fill="#F4B663" stroke="#664822" stroke-miterlimit="10"/>
<path d="M24.094 41.5831C27.454 41.5572 30.2713 43.444 30.8916 46.6748C31.2534 48.5616 30.7107 49.5179 28.8497 49.7505C27.1956 49.9573 25.5672 50.4742 23.8872 50.4483C23.3703 50.4483 22.75 50.4742 22.5432 51.0428C22.3106 51.689 22.9051 52.025 23.3445 52.361C24.6626 53.3431 26.0583 53.5757 27.5833 52.8262C27.7642 52.7228 27.9968 52.6711 28.1777 52.5936C28.9789 52.2317 29.8577 51.844 30.4522 52.852C30.995 53.8084 30.1937 54.377 29.5993 54.8939C25.8515 58.1247 19.2091 56.8841 17.1414 52.5936C14.6601 47.4243 18.3561 41.5831 24.094 41.5831ZM24.0165 44.7363C22.7758 44.7363 21.6128 46.132 21.8195 47.3209C21.8454 47.476 21.9488 47.6311 22.078 47.7086C22.3881 47.9154 25.4639 47.2434 25.6448 46.9591C25.8516 46.5972 25.8257 46.1837 25.6706 45.8477C25.3346 45.0982 24.7919 44.6588 24.0165 44.7363Z" fill="#F4B663" stroke="#664822" stroke-miterlimit="10"/>
<path d="M93.1552 34.863C95.9466 34.863 97.9368 36.0778 98.7897 38.3264C99.1516 39.3086 99.2291 40.1356 98.0144 40.7818C96.2827 41.7381 94.706 42.9529 93.0519 44.0126C92.2506 44.5295 92.4316 44.8914 93.1552 45.2791C94.6802 46.0544 96.8254 45.5634 98.0402 44.0901C98.6605 43.3664 99.2808 42.3067 100.315 43.0046C101.297 43.6766 100.806 44.7621 100.341 45.6667C98.4796 49.3369 92.7159 51.1203 89.2525 49.0785C85.4014 46.804 84.29 41.4797 86.8746 37.8095C88.1152 36.0778 90.6482 34.863 93.1552 34.863ZM90.0537 40.6267C90.0278 40.9369 89.9762 41.4797 90.4414 41.7381C90.9583 42.0483 91.2943 41.5055 91.6562 41.2987C92.1731 41.0144 92.69 40.6784 93.1552 40.3424C93.9306 39.7738 93.9048 38.9726 93.0519 38.5073C92.3799 38.1455 91.6303 38.0679 90.9583 38.4815C90.2863 38.9209 90.002 39.6446 90.0537 40.6267Z" fill="#F4B663" stroke="#664822" stroke-miterlimit="10"/>
<path d="M56.8154 25.8685C56.8154 22.25 60.2788 18.7091 63.8715 18.6057C66.4044 18.5282 68.6789 18.9934 70.0487 21.423C71.2893 23.5941 70.8758 24.7571 68.5755 25.7651C67.2056 26.3596 65.8099 26.9541 64.4401 27.5744C64.0782 27.7295 63.5096 27.807 63.5096 28.3498C63.5096 28.815 64.0007 29.0476 64.3625 29.2285C65.7324 29.9781 67.1022 29.9005 68.3946 29.0476C68.8856 28.7116 69.3767 28.3498 69.8161 27.9362C70.3589 27.4193 70.9017 27.0316 71.5995 27.6778C72.2198 28.2722 72.194 28.9959 71.7546 29.6679C70.9792 30.831 70.0229 31.839 68.7823 32.4593C66.4044 33.6741 63.949 34.1652 61.3385 33.1055C58.3662 31.8649 57.0222 29.0735 56.8154 25.8685ZM63.5613 21.7331C62.7601 21.8365 62.2431 22.6636 61.8555 23.5682C61.6487 24.0851 61.5453 24.7054 61.9847 25.1448C62.4241 25.5325 62.8376 25.0673 63.2512 24.8864C63.6388 24.7054 64.0782 24.6279 64.4142 24.3694C64.8278 24.0334 65.7582 24.0593 65.4998 23.2064C65.293 22.431 64.7761 21.8365 63.5613 21.7331Z" fill="#B7814B" stroke="#664822" stroke-miterlimit="10"/>
<path d="M85.634 28.9701C81.3952 28.9184 78.6555 26.3596 78.1127 21.7331C77.7767 18.9934 79.922 15.2974 83.3854 14.1601C86.7454 13.0488 89.3042 14.3411 90.8808 16.2795C92.2248 17.9596 91.9147 19.2002 90.0537 20.234C88.4771 21.1128 87.0039 22.1208 85.4789 23.103C84.7035 23.594 85.0137 23.9559 85.6082 24.3177C87.0297 25.119 89.0457 24.8347 90.2605 23.6457C90.5965 23.3097 90.9066 22.9479 91.2426 22.6119C91.682 22.1725 92.1214 21.5263 92.871 22.0691C93.6205 22.586 93.698 23.3356 93.3104 24.1368C92.6125 25.6101 91.6045 26.8248 90.1313 27.5744C88.6839 28.2722 87.2623 29.1251 85.634 28.9701ZM82.7134 19.0968C82.7392 19.3294 82.8426 19.6654 82.8426 20.0014C82.8943 20.9836 83.2303 21.2162 84.0574 20.5442C84.6519 20.0531 85.3239 19.6913 85.97 19.2519C86.4611 18.9417 86.5903 18.554 86.2543 18.0629C85.7115 17.3392 84.9879 16.874 84.0574 17.1583C83.2045 17.4426 82.7392 18.0629 82.7134 19.0968Z" fill="#B7814B" stroke="#664822" stroke-miterlimit="10"/>
<path d="M122.879 28.6082C124.197 27.0574 125.515 25.7393 127.738 26.2562C129.056 26.5663 129.676 27.29 129.573 28.634C129.495 29.5387 129.521 30.4433 129.237 31.3221C128.797 32.6144 127.789 32.9245 126.755 32.0458C125.179 30.6759 124.378 30.8827 123.912 32.9245C123.499 34.6562 124.223 36.3104 124.61 37.9646C124.714 38.4556 125.256 38.4556 125.644 38.6107C126.213 38.8433 126.781 39.1535 126.755 39.8772C126.704 40.5492 126.213 40.9627 125.592 41.092C123.706 41.4538 121.793 41.7123 119.932 42.2033C119.389 42.3584 118.898 41.8673 118.562 41.3763C118.226 40.8852 118.459 40.4716 118.795 40.1098C119.622 39.2827 119.389 38.2489 119.26 37.2925C119.131 36.1812 118.821 35.1215 118.562 34.0359C118.381 33.2864 118.045 32.7695 117.296 32.3818C116.081 31.7873 116.029 30.6759 117.115 29.823C118.019 29.0993 118.976 28.4531 119.932 27.807C121.276 26.9282 121.767 27.0574 122.879 28.6082Z" fill="#F4B663" stroke="#664822" stroke-miterlimit="10"/>
<path d="M136.706 4.90718C136.732 5.86349 136.577 6.79396 136.06 7.64688C135.44 8.68074 134.742 8.75828 133.863 7.98289C133.346 7.51765 132.984 6.61303 132.106 6.92319C131.149 7.25919 130.917 8.24135 130.813 9.14597C130.632 10.6192 130.968 12.0408 131.253 13.4881C131.382 14.1085 131.899 14.2377 132.39 14.4186C132.984 14.6512 133.295 15.0648 133.217 15.7109C133.139 16.3312 132.803 16.7448 132.157 16.8482C130.296 17.1325 128.435 17.4426 126.575 17.5977C125.386 17.7011 124.714 16.6155 125.386 15.7368C126.213 14.6771 126.109 13.5657 126.006 12.4284C125.903 11.2912 125.463 10.1798 125.463 8.99089C125.463 8.57735 125.205 8.29304 124.843 8.06043C123.059 6.84565 123.189 5.57918 125.127 4.54533C125.877 4.13179 126.652 3.7441 127.376 3.27886C128.229 2.73609 128.952 2.81363 129.443 3.6924C129.857 4.44195 130.09 4.26102 130.607 3.7441C131.511 2.81363 132.545 2.06409 133.967 2.06409C135.983 2.06409 136.758 2.83948 136.706 4.90718Z" fill="#B7814B" stroke="#664822" stroke-miterlimit="10"/>
<path d="M17.6842 35.1473C17.5808 36.0261 17.374 36.8273 17.1931 37.6027C16.1851 42.0483 15.2546 46.4939 14.2466 50.9136C14.1174 51.508 14.4017 51.8182 14.7118 52.1542C15.1254 52.6453 15.4097 53.1622 14.9962 53.7825C14.5826 54.377 13.9882 54.6613 13.3161 54.4545C11.8171 53.9634 10.2663 53.6016 8.71551 53.3173C8.06935 53.2139 7.44904 52.8779 7.3715 52.1283C7.29396 51.4305 7.7592 51.017 8.35366 50.7585C9.12905 50.4225 9.33582 49.6988 9.4909 49.0009C10.2404 45.8219 11.0158 42.6686 11.7137 39.4895C11.9463 38.4815 12.0238 37.4735 11.3001 36.543C10.6023 35.6643 10.9124 34.8372 11.998 34.4236C13.2903 33.9326 14.6602 33.7516 16.0042 33.519C17.0122 33.3381 17.71 34.0876 17.6842 35.1473Z" fill="#F4B663" stroke="#664822" stroke-miterlimit="10"/>
<path d="M47.6142 34.6821C46.7871 34.6821 45.9858 34.6821 45.1588 34.6821C44.616 34.6821 44.1249 34.5787 43.8664 34.0101C43.5821 33.4156 43.7631 32.9246 44.1766 32.4593C44.6418 31.9682 45.1846 31.5547 45.1588 30.7276C45.0812 28.8925 45.3655 27.0058 44.5901 25.2482C44.5126 25.0673 44.3058 24.9381 44.1249 24.8088C42.7809 23.6716 42.7292 23.0513 44.2283 22.0691C45.2621 21.3971 46.4252 20.8802 47.5883 20.4408C48.2862 20.1823 49.1132 20.2599 49.4751 21.087C49.8369 21.8882 50.1988 21.578 50.6382 21.2162C51.5945 20.4408 52.6025 19.8205 53.8948 19.8722C55.6265 19.9239 56.7379 21.1128 56.5311 22.8187C56.4277 23.6716 56.2468 24.4987 55.8333 25.2999C55.032 26.8507 54.1274 26.9541 52.9902 25.6101C51.7237 24.111 51.2068 24.2144 50.3022 26.0236C49.5268 27.6002 49.8628 29.2285 49.9662 30.831C49.992 31.4513 50.5865 31.7098 51.0776 32.0199C51.5945 32.3559 52.1114 32.7953 51.9046 33.4673C51.6979 34.1135 51.1292 34.527 50.4314 34.5529C49.4751 34.6046 48.5446 34.5529 47.5883 34.5529C47.6142 34.6563 47.6142 34.6563 47.6142 34.6821Z" fill="#B7814B" stroke="#664822" stroke-miterlimit="10"/>
</svg>
