<svg width="51" height="60" viewBox="0 0 51 60" fill="none" xmlns="http://www.w3.org/2000/svg">
<path d="M51 22.8C51 31.9 51 41.1 51 50.2C51 50.3 50.9 50.5 50.9 50.6C50.2 54.8 47.9 57.7 43.9 59.1C43.1 59.4 42.2 59.5 41.4 59.7C35 59.7 28.5 59.7 22.1 59.7C22 59.7 21.8 59.6 21.7 59.6C20.7 59.3 19.7 59.2 18.8 58.7C14.7 56.7 12.6 53.4 12.6 48.8C12.6 40.3 12.6 31.8 12.6 23.3C12.6 23.1 12.6 22.9 12.6 22.7C12.8 22.7 13 22.7 13.2 22.7C19.6 22.7 26 22.7 32.3 22.7C38.6 22.8 44.8 22.8 51 22.8Z" fill="#FFF7EA"/>
<path d="M0 38.3C0.2 37.5 0.3 36.8 0.6 36C2 32.4 4.8 30.4 8.6 30C9.3 29.9 12.8 30 13.5 30C13.5 32 13.5 34 13.5 36.1C13 36.1 9.7 36.1 9.3 36.1C7.5 36.1 6.1 37.5 6.1 39.2C6.1 40.9 7.5 42.2 9.3 42.2C9.8 42.2 12.5 42.3 13 42.3C13 44.3 13 46.4 13 48.4C10.2 48.6 5.4 48 3.2 46.2C1.5 44.7 0.4 42.8 0.1 40.5C0.1 40.4 0 40.2 0 40.1C0 39.6 0 38.9 0 38.3Z" fill="#FFF7EA"/>
<path d="M24.9 4.20001C24.9 5.30001 24.7 6.30001 24.2 7.20001C23.6 8.40001 23.6 9.60001 24.2 10.8C25.2 12.8 25.1 14.8 24.2 16.8C23.9 17.4 23.8 18 23.6 18.6C22.5 18.6 21.4 18.6 20.2 18.6C20.2 17.6 20.3 16.6 20.8 15.8C21.5 14.5 21.5 13.2 20.8 11.9C19.9 10 20 8.10001 20.8 6.10001C21.1 5.50001 21.2 4.80001 21.4 4.20001C22.5 4.20001 23.7 4.20001 24.9 4.20001Z" fill="#FFF7EA"/>
<path d="M35 0C34.9 1.5 34.7 2.9 34.2 4.2C33.6 5.6 33.7 7.1 34.3 8.5C35.1 10.5 35.2 12.6 34.8 14.7C34.7 15.3 34.5 15.9 34.3 16.4C34.1 17.1 33.9 17.8 33.7 18.6C32.6 18.6 31.4 18.6 30.2 18.6C30.1 17.3 30.3 16.1 30.8 14.9C31.5 13.2 31.5 11.6 30.8 9.9C29.9 7.5 29.9 5 30.8 2.5C31.1 1.7 31.2 0.8 31.4 0C32.5 0 33.7 0 35 0Z" fill="#FFF7EA"/>
<path d="M44.7 4.20001C44.8 5.30001 44.5 6.30001 44 7.20001C43.4 8.40001 43.4 9.60001 44 10.8C45 12.8 44.9 14.8 44 16.8C43.7 17.4 43.6 18 43.4 18.6C42.3 18.6 41.2 18.6 40 18.6C40 17.6 40.1 16.6 40.6 15.8C41.3 14.5 41.3 13.2 40.6 11.9C39.7 10 39.8 8.10001 40.6 6.10001C40.9 5.50001 41 4.80001 41.1 4.20001C42.3 4.20001 43.5 4.20001 44.7 4.20001Z" fill="#FFF7EA"/>
</svg>
