<?xml version="1.0" encoding="utf-8"?>
<!-- Generator: Adobe Illustrator 25.2.1, SVG Export Plug-In . SVG Version: 6.00 Build 0)  -->
<svg version="1.1" id="Layer_1" xmlns="http://www.w3.org/2000/svg" xmlns:xlink="http://www.w3.org/1999/xlink" x="0px" y="0px"
	 viewBox="0 0 485 485" style="enable-background:new 0 0 485 485;" xml:space="preserve">
<style type="text/css">
	.st0{fill:#19181F;}
	.st1{fill-rule:evenodd;clip-rule:evenodd;fill:#19181F;}
	.st2{fill:#FFF8F5;}
	.st3{fill:#FFFFFF;stroke:#19181F;stroke-width:2.52;stroke-miterlimit:10;}
	.st4{fill-rule:evenodd;clip-rule:evenodd;fill:#FFFFFF;stroke:#19181F;stroke-width:2.52;stroke-miterlimit:10;}
	.st5{fill:#FFFFFF;}
	.st6{fill:#FFFFFF;stroke:#19181F;stroke-width:2;stroke-miterlimit:10;}
	.st7{fill:#FFFFFF;stroke:#19181F;stroke-width:2;stroke-linecap:round;stroke-linejoin:round;stroke-miterlimit:10;}
	
		.st8{fill-rule:evenodd;clip-rule:evenodd;fill:#FFFFFF;stroke:#19181F;stroke-width:2.52;stroke-linecap:round;stroke-linejoin:round;stroke-miterlimit:10;}
	.st9{fill-rule:evenodd;clip-rule:evenodd;fill:#FFFFFF;}
</style>
<path class="st0" d="M238.8,64c-29.5-18.3-96.8,76.1-43.6,130.7c11.8,12.1,15.3,4.7,30.8,7.3c8.7,1.4,12.3-17,51.5-5.4
	c25.8,7.6,22-27.8,58.6-19.5C415.9,195,308.4,59,238.8,64L238.8,64z"/>
<path class="st1" d="M232.3,63.8c4.2,7.2,15.2,8.8,25.2,5.7c10.8-3.3,16.4-15.1,11.9-25.4c-2.7-6.3-7.6-11.7-15-14.6
	c-7.4-2.9-15.6,0.2-19.4,7.1C230.4,45.4,228.7,57.6,232.3,63.8L232.3,63.8z"/>
<path class="st2" d="M221,141.5c-0.9-4.4-2.7-7.8-5.1-10.1c-3.4-3.3-7.9-4.2-12.1-1.9c-2.4,1.3-4.7,3.8-6.5,7.6
	c1.6,1.7,3.4,2.4,5.3,2.5c4.2-7.8,10.6-5.4,12.6,2.4C217.3,142.5,219.2,142.1,221,141.5L221,141.5z"/>
<path class="st3" d="M219.9,137.7c-1-2.6-2.4-4.7-4-6.3c-3.4-3.3-7.9-4.2-12.1-1.9c-1.5,0.8-2.8,2-4.1,3.6c1.9,1,4,1.8,6.2,2.5
	c2.5-1.6,5.2-0.9,7.2,1.6C215.5,137.6,217.8,137.7,219.9,137.7L219.9,137.7z"/>
<path class="st4" d="M231.9,133.5c3.3-4.4,19.2-9.2,21.9-7c0.7,15.1,3.7,34.9,6.9,42.6c-8.4,2.7-25.2,1.7-32.5-0.2
	C232,161.6,232.6,139.1,231.9,133.5L231.9,133.5z"/>
<path class="st4" d="M215.7,105.1c-4.2-1.2-8.6,1.6-9.8,6.1c-1.2,4.5,1.1,9.1,5.3,10.2c4.2,1.2,8.6-1.6,9.8-6.1
	C222.3,110.9,219.9,106.3,215.7,105.1z"/>
<path class="st4" d="M253.8,126.5c16.2,8.5,21.9-23.3,1.4-14.9c-5.1-8-14.5-9.5-15.4-23.9c-3.5-0.2-7-0.2-10.3,0.3
	c-7.7,1-14.2,6.2-17.1,13.5c-7.6,19.2,1.1,38.8,13.5,43C234.4,147.3,243.9,139.9,253.8,126.5L253.8,126.5z"/>
<path class="st0" d="M263.7,117.6c0.5,0.3,1.2,0.1,1.5-0.4c0.3-0.5,0.1-1.2-0.4-1.5c-0.2-0.1-0.4-0.2-0.6-0.3
	c-1.4-0.7-3-0.9-4.5-0.5c-1.5,0.4-2.9,1.4-4,3.3c-0.1,0.2-0.3,0.5-0.4,0.7c-0.2,0.3-0.2,0.7,0,1.1c0.3,0.5,0.9,0.7,1.5,0.4
	c0.6-0.4,1.2-0.6,1.8-0.8c0.6-0.1,1.1-0.2,1.6-0.1c0.6,0.1,1.1-0.4,1.2-1c0.1-0.6-0.4-1.1-1-1.2c-0.3,0-0.6,0-1,0
	c0.3-0.1,0.5-0.3,0.8-0.3c1-0.3,2-0.1,3,0.4C263.4,117.4,263.6,117.5,263.7,117.6L263.7,117.6z"/>
<path class="st0" d="M254.7,127c0.3-0.5,0.2-1.2-0.3-1.5c-0.5-0.3-1.2-0.2-1.5,0.3c-1.7,2.6-3.7,5.4-6.1,8c-2.4,2.6-5.3,5.1-8.6,7.2
	c-0.5,0.3-0.6,1-0.3,1.5c0.3,0.5,1,0.6,1.5,0.3c3.5-2.2,6.5-4.8,9-7.5C250.8,132.6,252.9,129.8,254.7,127L254.7,127z"/>
<path class="st2" d="M279.8,141.1c-2.9-4.1-6.5-6.8-9.9-8.1c-5.1-1.8-10.2-0.6-13.4,3.7c-1.9,2.5-3.1,6.1-3.2,10.9
	c2.4,1,4.6,0.9,6.6,0.1c0.7-10,8.5-10.6,14.1-3.4C276.4,143.9,278.3,142.7,279.8,141.1L279.8,141.1z"/>
<path class="st3" d="M276.9,137.7c-2.2-2.2-4.6-3.8-7-4.6c-5.1-1.8-10.2-0.6-13.4,3.7c-1.1,1.5-2,3.4-2.6,5.7c2.4,0.1,5,0,7.6-0.3
	c1.9-2.9,5-3.4,8.2-1.6C272.3,139.7,274.7,138.8,276.9,137.7z"/>
<path class="st4" d="M237.6,391.3l21.9-0.5l1.5,61.4c-19.3,7.6-134.2,10.3-144.6-10.8C198.4,421.5,189.9,355.4,237.6,391.3z"/>
<path class="st4" d="M147.4,454.2c-15.9-2.6-27.9-6.7-30.9-12.9c12.9-3.1,23.6-7.4,32.5-12.2c1,3.3,1.5,6.8,1.5,10.4
	C150.5,444.8,149.4,449.8,147.4,454.2z"/>
<path class="st1" d="M219.7,451.1l1.5-61.4c-6.5-3.6-85.8-30.8-87.9-35.9c6.1-12.5,7.7-29,48.3-39.5
	C-21.4,241.8-11.7,438.2,219.7,451.1L219.7,451.1z"/>
<path class="st1" d="M221,397.2l0.2-7.4c-6.5-3.6-85.8-30.8-87.9-35.9c6.1-12.5,7.7-29,48.3-39.5c-72.2-25.8-117.5-17.6-135.5,4.3
	C70.3,359.8,138,390.9,221,397.2L221,397.2z"/>
<path class="st1" d="M256.6,447.9c-12.8-15.4-89.5-54.4-84.7-78.2c7-35.3,104-53.6,131.2-45.1c152.3-54.5,202.6,76.6,61.2,115.7
	C335.8,448.2,301.7,449.5,256.6,447.9L256.6,447.9z"/>
<path class="st1" d="M184.1,392.6c-8.4-8.3-13.5-16.2-12.2-22.9c7-35.3,104-53.6,131.2-45.1c70.6-25.2,119.3-10.6,137.1,16.2
	c-36.9,34.4-107.3,57.6-188,57.6C228.4,398.4,205.5,396.3,184.1,392.6z"/>
<path class="st4" d="M243.1,390.3l-21.9-0.5l-1.5,61.4c19.3,7.6,134.2,10.3,144.6-10.8C282.3,420.5,290.9,354.4,243.1,390.3z"/>
<path class="st4" d="M333.4,453.2c15.9-2.6,27.9-6.7,30.9-12.9c-12.9-3.1-23.6-7.4-32.5-12.2c-1,3.3-1.5,6.8-1.5,10.4
	C330.3,443.8,331.4,448.8,333.4,453.2z"/>
<path class="st4" d="M296,399.7c-17.1-17.7-26.2-29.4-52.9-9.4c6.2,9.1,17.9,15.2,31.4,15.2C282.6,405.5,290,403.3,296,399.7z"/>
<path class="st5" d="M218.8,388.8c0.6,0.2,1.2,0,1.4-0.6c0.2-0.6,0-1.2-0.6-1.4L121,346.6c-0.6-0.2-1.2,0-1.4,0.6
	c-0.2,0.6,0,1.2,0.6,1.4L218.8,388.8z"/>
<path class="st5" d="M364.4,353.5c0.6-0.2,0.8-0.8,0.6-1.4c-0.2-0.6-0.8-0.8-1.4-0.6L282.2,383c-0.6,0.2-0.8,0.8-0.6,1.4
	c0.2,0.6,0.8,0.8,1.4,0.6L364.4,353.5z"/>
<path class="st4" d="M208.6,187.2c-5.2-7.4-2.4-18.9-0.3-23.5c24.5-1.2,47.7-2.3,67.2-4.9c3.9,5.2,6.3,21.7,1.9,30.6
	c45.9,7.6,187.7,132.5,50.6,163.7C85.4,427.7,22.9,265.8,208.6,187.2L208.6,187.2z"/>
<path class="st0" d="M272.4,190.9c0.5-0.3,0.8-0.9,0.5-1.4c-0.3-0.5-0.9-0.8-1.4-0.5c-3.7,1.7-11.7,3.2-19.9,4.1
	c-8.4,0.9-16.9,1.1-21.3,0.2c-0.6-0.1-1.1,0.3-1.3,0.9s0.3,1.1,0.9,1.3c4.6,0.9,13.4,0.7,21.9-0.2
	C260.3,194.3,268.5,192.7,272.4,190.9L272.4,190.9z"/>
<path class="st0" d="M303.8,229.1c-0.1-0.6-0.6-1-1.2-0.9s-1,0.6-0.9,1.2l12.1,85.8c0.1,0.6,0.6,1,1.2,0.9c0.5-0.1,0.8-0.4,0.9-0.9
	c0.2-0.9,1.4-3.4,1.7-4.3c3.3-8.3,10.5-14.5,18.9-18c8.5-3.5,18.2-4.4,26.5-2.1c1,0.3,2.1,0.6,3.1,1c0.6,0.2,1.2-0.1,1.4-0.6
	c0.2-0.6-0.1-1.2-0.6-1.4c-1.1-0.4-2.2-0.8-3.3-1.1c-8.7-2.4-19-1.5-27.9,2.2c-8.6,3.6-15.9,9.7-19.6,18L303.8,229.1L303.8,229.1z"
	/>
<path class="st0" d="M188.9,236.2c0.1-0.6-0.3-1.1-0.8-1.3c-0.6-0.1-1.1,0.3-1.3,0.8l-13.6,65.8c-0.1,0.6,0.3,1.1,0.8,1.3
	c0.6,0.1,1.1-0.3,1.3-0.8L188.9,236.2z"/>
<path class="st4" d="M327.9,353l-13.3-36.9l-36.2,8.4l-43.3,26.5c2.4,4.1,4.1,7.6,10.2,7.9c-3.1,3-8.7,4.3-10.8,6.3
	c2.9,7,15.2,5,17,4.1c11,11.8,30.5-2.1,37.9-4.6C293.9,365.3,319.5,362.7,327.9,353L327.9,353z"/>
<path class="st0" d="M282.2,351.1c0.5-0.3,0.6-1,0.3-1.5s-1-0.6-1.5-0.3l-30.1,19.3c-0.5,0.3-0.6,1-0.3,1.5c0.3,0.5,1,0.6,1.5,0.3
	L282.2,351.1z"/>
<path class="st0" d="M277.6,339.5c0.5-0.4,0.6-1,0.2-1.5c-0.4-0.5-1-0.6-1.5-0.2c-3.5,2.6-12.1,8.2-20.7,13.6
	c-9.9,6.2-19.7,12.1-21.6,13c-0.5,0.2-0.8,0.9-0.5,1.4c0.2,0.5,0.9,0.8,1.4,0.5c2-0.9,12-6.9,21.9-13.2
	C265.4,347.8,274.1,342.2,277.6,339.5L277.6,339.5z"/>
<path class="st0" d="M272,329.8c0.5-0.3,0.7-1,0.4-1.5c-0.3-0.5-1-0.7-1.5-0.4l-36.3,22.2c-0.5,0.3-0.7,1-0.4,1.5
	c0.3,0.5,1,0.7,1.5,0.4L272,329.8z"/>
<path class="st4" d="M175,188.9c-4.1,2.3-5.9,6.8-4.1,10.1c1.8,3.3,6.7,4.1,10.8,1.8c4.1-2.3,5.9-6.8,4.1-10.1
	C183.9,187.4,179.1,186.6,175,188.9z"/>
<path class="st0" d="M295.8,374.3c0.6,0,1.1-0.5,1.1-1.1c0-0.6-0.5-1.1-1.1-1.1H98c-0.6,0-1.1,0.5-1.1,1.1c0,0.6,0.5,1.1,1.1,1.1
	H295.8z"/>
<g>
	<path class="st6" d="M229.6,179.6c0,9.1,0,18.3,0,27.4c0,0.1-0.1,0.3-0.1,0.4c-0.7,4.2-3,7.1-7,8.5c-0.8,0.3-1.7,0.4-2.5,0.6
		c-6.4,0-12.9,0-19.3,0c-0.1,0-0.3-0.1-0.4-0.1c-1-0.3-2-0.4-2.9-0.9c-4.1-2-6.2-5.3-6.2-9.9c0-8.5,0-17,0-25.5c0-0.2,0-0.4,0-0.6
		c0.2,0,0.4,0,0.6,0c6.4,0,12.8,0,19.1,0C217.1,179.6,223.3,179.6,229.6,179.6z"/>
	<path class="st6" d="M178.5,195.2c0.2-0.8,0.3-1.5,0.6-2.3c1.4-3.6,4.2-5.6,8-6c0.7-0.1,3.2,0,3.9,0c0,2,0,4,0,6.1
		c-0.5,0-2.8,0-3.2,0c-1.8,0-3.2,1.4-3.2,3.1c0,1.7,1.4,3,3.2,3c0.5,0,2.5,0.1,3,0.1c0,2,0,4.1,0,6.1c-2.8,0.2-6.9-0.4-9.1-2.2
		c-1.7-1.5-2.8-3.4-3.1-5.7c0-0.1-0.1-0.3-0.1-0.4C178.5,196.4,178.5,195.8,178.5,195.2z"/>
	<path class="st7" d="M203.4,161.1c0,1.1-0.2,2.1-0.7,3c-0.6,1.2-0.6,2.4,0,3.6c1,2,0.9,4,0,6c-0.3,0.6-0.4,1.2-0.6,1.8
		c-1.1,0-2.2,0-3.4,0c0-1,0.1-2,0.6-2.8c0.7-1.3,0.7-2.6,0-3.9c-0.9-1.9-0.8-3.8,0-5.8c0.3-0.6,0.4-1.3,0.6-1.9
		C201,161.1,202.2,161.1,203.4,161.1z"/>
	<path class="st7" d="M213.5,156.8c-0.1,1.5-0.3,2.9-0.8,4.2c-0.6,1.4-0.5,2.9,0.1,4.3c0.8,2,0.9,4.1,0.5,6.2
		c-0.1,0.6-0.3,1.2-0.5,1.7c-0.2,0.7-0.4,1.4-0.6,2.2c-1.1,0-2.3,0-3.5,0c-0.1-1.3,0.1-2.5,0.6-3.7c0.7-1.7,0.7-3.3,0-5
		c-0.9-2.4-0.9-4.9,0-7.4c0.3-0.8,0.4-1.7,0.6-2.5C211,156.8,212.3,156.8,213.5,156.8z"/>
	<path class="st7" d="M223.3,161.1c0.1,1.1-0.2,2.1-0.7,3c-0.6,1.2-0.6,2.4,0,3.6c1,2,0.9,4,0,6c-0.3,0.6-0.4,1.2-0.6,1.8
		c-1.1,0-2.2,0-3.4,0c0-1,0.1-2,0.6-2.8c0.7-1.3,0.7-2.6,0-3.9c-0.9-1.9-0.8-3.8,0-5.8c0.3-0.6,0.4-1.3,0.5-1.9
		C220.9,161.1,222.1,161.1,223.3,161.1z"/>
</g>
<g>
	<path class="st8" d="M153.2,196.3c6.4-3.1,23.9-4.6,33.6-2.9c5.4,0.9,2.7,11.5-0.4,12.4c2.3,3.5,2.4,9.5-0.7,14
		c1.8,3.3,0.9,10-2.2,12.9c-3.3,11.4-9,11.9-15.3,12.3l0.3,104.5c-61.7-1.4-48.1-72.9-28-122.1L153.2,196.3L153.2,196.3z"/>
	<path class="st0" d="M186.3,206.8c0.6,0,1.1-0.4,1.2-1c0-0.6-0.4-1.1-1-1.2c-3.3-0.3-7.5-0.1-11.6,0.3c-5.2,0.5-10.3,1.3-13,2
		c-0.6,0.1-0.9,0.7-0.8,1.3c0.1,0.6,0.7,0.9,1.3,0.8c2.6-0.7,7.5-1.5,12.7-1.9C179,206.7,183.1,206.5,186.3,206.8z"/>
	<path class="st0" d="M185.6,220.8c0.6,0,1.1-0.4,1.2-1c0-0.6-0.4-1.1-1-1.2c-3.3-0.3-7.1-0.1-10.9,0.3c-5,0.5-9.8,1.4-12.5,2.1
		c-0.6,0.1-0.9,0.7-0.8,1.3c0.1,0.6,0.7,0.9,1.3,0.8c2.7-0.7,7.3-1.5,12.2-2C178.7,220.7,182.5,220.6,185.6,220.8L185.6,220.8z"/>
	<path class="st0" d="M183.5,233.8c0.6,0,1.1-0.5,1.1-1.1c0-0.6-0.5-1.1-1.1-1.1c-3.6,0-7.4,0.3-11,0.7c-3.9,0.4-7.5,1.1-10,1.7
		c-0.6,0.1-0.9,0.7-0.8,1.3c0.1,0.6,0.7,0.9,1.3,0.8c2.5-0.6,5.9-1.2,9.7-1.6C176.2,234.1,180,233.8,183.5,233.8L183.5,233.8z"/>
</g>
<path class="st9" d="M197.9,258.5h-154L98,373.2h154L197.9,258.5z"/>
<path class="st0" d="M197.7,257.4H42l55.1,116.9h156.4c-18.4-39-36.7-78-55.1-116.9H197.7z M45.4,259.5H197l53,112.6H98.5
	L45.4,259.5z"/>
<path class="st0" d="M147.8,325c-5,0-9.1-4.1-9.1-9.1c0-5,4.1-9.1,9.1-9.1c5,0,9.1,4.1,9.1,9.1C156.9,320.9,152.8,325,147.8,325z"/>
</svg>
