<?xml version="1.0" encoding="utf-8"?>
<!-- Generator: Adobe Illustrator 25.2.1, SVG Export Plug-In . SVG Version: 6.00 Build 0)  -->
<svg version="1.1" id="Layer_1" xmlns="http://www.w3.org/2000/svg" xmlns:xlink="http://www.w3.org/1999/xlink" x="0px" y="0px"
	 viewBox="0 0 485 485" style="enable-background:new 0 0 485 485;" xml:space="preserve">
<style type="text/css">
	.st0{fill:#403325;}
	.st1{fill-rule:evenodd;clip-rule:evenodd;fill:#403325;}
	.st2{fill:#FFF8F5;}
	.st3{fill:#FFFFFF;stroke:#403325;stroke-width:2.52;stroke-miterlimit:10;}
	.st4{fill-rule:evenodd;clip-rule:evenodd;fill:#FFFFFF;stroke:#403325;stroke-width:2.52;stroke-miterlimit:10;}
	.st5{fill:#403325;stroke:#403325;stroke-miterlimit:10;}
	.st6{fill:#FFFFFF;}
	.st7{fill:#19181F;stroke:#403325;stroke-miterlimit:10;}
	.st8{fill:#FFFFFF;stroke:#403325;stroke-width:2;stroke-miterlimit:10;}
	.st9{fill:#FFFFFF;stroke:#403325;stroke-width:2;stroke-linecap:round;stroke-linejoin:round;stroke-miterlimit:10;}
	
		.st10{fill-rule:evenodd;clip-rule:evenodd;fill:#FFFFFF;stroke:#403325;stroke-width:2.52;stroke-linecap:round;stroke-linejoin:round;stroke-miterlimit:10;}
	.st11{fill-rule:evenodd;clip-rule:evenodd;fill:#FFFFFF;}
	.st12{fill:#B7814B;stroke:#664822;stroke-width:2;stroke-miterlimit:10;}
	.st13{fill:#F4B663;stroke:#664822;stroke-width:2;stroke-miterlimit:10;}
	.st14{fill:#CD8445;stroke:#683E01;stroke-width:0.5;stroke-miterlimit:10;}
</style>
<path class="st0" d="M238.8,64c-29.5-18.3-96.8,76.1-43.6,130.7c11.8,12.1,15.3,4.7,30.8,7.3c8.7,1.4,12.3-17,51.5-5.4
	c25.8,7.6,22-27.8,58.6-19.5C415.9,195,308.4,59,238.8,64L238.8,64z"/>
<path class="st1" d="M232.3,63.8c4.2,7.2,15.2,8.8,25.2,5.7c10.8-3.3,16.4-15.1,11.9-25.4c-2.7-6.3-7.6-11.7-15-14.6
	c-7.4-2.9-15.6,0.2-19.4,7.1C230.4,45.4,228.7,57.6,232.3,63.8L232.3,63.8z"/>
<path class="st2" d="M221,141.5c-0.9-4.4-2.7-7.8-5.1-10.1c-3.4-3.3-7.9-4.2-12.1-1.9c-2.4,1.3-4.7,3.8-6.5,7.6
	c1.6,1.7,3.4,2.4,5.3,2.5c4.2-7.8,10.6-5.4,12.6,2.4C217.3,142.5,219.2,142.1,221,141.5L221,141.5z"/>
<path class="st3" d="M219.9,137.7c-1-2.6-2.4-4.7-4-6.3c-3.4-3.3-7.9-4.2-12.1-1.9c-1.5,0.8-2.8,2-4.1,3.6c1.9,1,4,1.8,6.2,2.5
	c2.5-1.6,5.2-0.9,7.2,1.6C215.5,137.6,217.8,137.7,219.9,137.7L219.9,137.7z"/>
<path class="st4" d="M231.9,133.5c3.3-4.4,19.2-9.2,21.9-7c0.7,15.1,3.7,34.9,6.9,42.6c-8.4,2.7-25.2,1.7-32.5-0.2
	C232,161.6,232.6,139.1,231.9,133.5L231.9,133.5z"/>
<path class="st4" d="M215.7,105.1c-4.2-1.2-8.6,1.6-9.8,6.1c-1.2,4.5,1.1,9.1,5.3,10.2c4.2,1.2,8.6-1.6,9.8-6.1
	C222.3,110.9,219.9,106.3,215.7,105.1z"/>
<path class="st4" d="M253.8,126.5c16.2,8.5,21.9-23.3,1.4-14.9c-5.1-8-14.5-9.5-15.4-23.9c-3.5-0.2-7-0.2-10.3,0.3
	c-7.7,1-14.2,6.2-17.1,13.5c-7.6,19.2,1.1,38.8,13.5,43C234.4,147.3,243.9,139.9,253.8,126.5L253.8,126.5z"/>
<path class="st5" d="M263.7,117.6c0.5,0.3,1.2,0.1,1.5-0.4c0.3-0.5,0.1-1.2-0.4-1.5c-0.2-0.1-0.4-0.2-0.6-0.3
	c-1.4-0.7-3-0.9-4.5-0.5c-1.5,0.4-2.9,1.4-4,3.3c-0.1,0.2-0.3,0.5-0.4,0.7c-0.2,0.3-0.2,0.7,0,1.1c0.3,0.5,0.9,0.7,1.5,0.4
	c0.6-0.4,1.2-0.6,1.8-0.8c0.6-0.1,1.1-0.2,1.6-0.1c0.6,0.1,1.1-0.4,1.2-1c0.1-0.6-0.4-1.1-1-1.2c-0.3,0-0.6,0-1,0
	c0.3-0.1,0.5-0.3,0.8-0.3c1-0.3,2-0.1,3,0.4C263.4,117.4,263.6,117.5,263.7,117.6L263.7,117.6z"/>
<path class="st0" d="M254.7,127c0.3-0.5,0.2-1.2-0.3-1.5c-0.5-0.3-1.2-0.2-1.5,0.3c-1.7,2.6-3.7,5.4-6.1,8c-2.4,2.6-5.3,5.1-8.6,7.2
	c-0.5,0.3-0.6,1-0.3,1.5c0.3,0.5,1,0.6,1.5,0.3c3.5-2.2,6.5-4.8,9-7.5C250.8,132.6,252.9,129.8,254.7,127L254.7,127z"/>
<path class="st2" d="M279.8,141.1c-2.9-4.1-6.5-6.8-9.9-8.1c-5.1-1.8-10.2-0.6-13.4,3.7c-1.9,2.5-3.1,6.1-3.2,10.9
	c2.4,1,4.6,0.9,6.6,0.1c0.7-10,8.5-10.6,14.1-3.4C276.4,143.9,278.3,142.7,279.8,141.1L279.8,141.1z"/>
<path class="st3" d="M276.9,137.7c-2.2-2.2-4.6-3.8-7-4.6c-5.1-1.8-10.2-0.6-13.4,3.7c-1.1,1.5-2,3.4-2.6,5.7c2.4,0.1,5,0,7.6-0.3
	c1.9-2.9,5-3.4,8.2-1.6C272.3,139.7,274.7,138.8,276.9,137.7z"/>
<path class="st4" d="M237.6,391.3l21.9-0.5l1.5,61.4c-19.3,7.6-134.2,10.3-144.6-10.8C198.4,421.5,189.9,355.4,237.6,391.3z"/>
<path class="st4" d="M147.4,454.2c-15.9-2.6-27.9-6.7-30.9-12.9c12.9-3.1,23.6-7.4,32.5-12.2c1,3.3,1.5,6.8,1.5,10.4
	C150.5,444.8,149.4,449.8,147.4,454.2z"/>
<path class="st1" d="M219.7,451.1l1.5-61.4c-6.5-3.6-85.8-30.8-87.9-35.9c6.1-12.5,7.7-29,48.3-39.5
	C-21.4,241.8-11.7,438.2,219.7,451.1L219.7,451.1z"/>
<path class="st1" d="M221,397.2l0.2-7.4c-6.5-3.6-85.8-30.8-87.9-35.9c6.1-12.5,7.7-29,48.3-39.5c-72.2-25.8-117.5-17.6-135.5,4.3
	C70.3,359.8,138,390.9,221,397.2L221,397.2z"/>
<path class="st1" d="M256.6,447.9c-12.8-15.4-89.5-54.4-84.7-78.2c7-35.3,104-53.6,131.2-45.1c152.3-54.5,202.6,76.6,61.2,115.7
	C335.8,448.2,301.7,449.5,256.6,447.9L256.6,447.9z"/>
<path class="st1" d="M184.1,392.6c-8.4-8.3-13.5-16.2-12.2-22.9c7-35.3,104-53.6,131.2-45.1c70.6-25.2,119.3-10.6,137.1,16.2
	c-36.9,34.4-107.3,57.6-188,57.6C228.4,398.4,205.5,396.3,184.1,392.6z"/>
<path class="st4" d="M243.1,390.3l-21.9-0.5l-1.5,61.4c19.3,7.6,134.2,10.3,144.6-10.8C282.3,420.5,290.9,354.4,243.1,390.3z"/>
<path class="st4" d="M333.4,453.2c15.9-2.6,27.9-6.7,30.9-12.9c-12.9-3.1-23.6-7.4-32.5-12.2c-1,3.3-1.5,6.8-1.5,10.4
	C330.3,443.8,331.4,448.8,333.4,453.2z"/>
<path class="st4" d="M296,399.7c-17.1-17.7-26.2-29.4-52.9-9.4c6.2,9.1,17.9,15.2,31.4,15.2C282.6,405.5,290,403.3,296,399.7z"/>
<path class="st6" d="M218.8,388.8c0.6,0.2,1.2,0,1.4-0.6c0.2-0.6,0-1.2-0.6-1.4L121,346.6c-0.6-0.2-1.2,0-1.4,0.6
	c-0.2,0.6,0,1.2,0.6,1.4L218.8,388.8z"/>
<path class="st6" d="M364.4,353.5c0.6-0.2,0.8-0.8,0.6-1.4c-0.2-0.6-0.8-0.8-1.4-0.6L282.2,383c-0.6,0.2-0.8,0.8-0.6,1.4
	c0.2,0.6,0.8,0.8,1.4,0.6L364.4,353.5z"/>
<path class="st4" d="M208.6,187.2c-5.2-7.4-2.4-18.9-0.3-23.5c24.5-1.2,47.7-2.3,67.2-4.9c3.9,5.2,6.3,21.7,1.9,30.6
	c45.9,7.6,187.7,132.5,50.6,163.7C85.4,427.7,22.9,265.8,208.6,187.2L208.6,187.2z"/>
<path class="st5" d="M272.4,190.9c0.5-0.3,0.8-0.9,0.5-1.4c-0.3-0.5-0.9-0.8-1.4-0.5c-3.7,1.7-11.7,3.2-19.9,4.1
	c-8.4,0.9-16.9,1.1-21.3,0.2c-0.6-0.1-1.1,0.3-1.3,0.9s0.3,1.1,0.9,1.3c4.6,0.9,13.4,0.7,21.9-0.2
	C260.3,194.3,268.5,192.7,272.4,190.9L272.4,190.9z"/>
<path class="st5" d="M303.8,229.1c-0.1-0.6-0.6-1-1.2-0.9s-1,0.6-0.9,1.2l12.1,85.8c0.1,0.6,0.6,1,1.2,0.9c0.5-0.1,0.8-0.4,0.9-0.9
	c0.2-0.9,1.4-3.4,1.7-4.3c3.3-8.3,10.5-14.5,18.9-18c8.5-3.5,18.2-4.4,26.5-2.1c1,0.3,2.1,0.6,3.1,1c0.6,0.2,1.2-0.1,1.4-0.6
	c0.2-0.6-0.1-1.2-0.6-1.4c-1.1-0.4-2.2-0.8-3.3-1.1c-8.7-2.4-19-1.5-27.9,2.2c-8.6,3.6-15.9,9.7-19.6,18L303.8,229.1L303.8,229.1z"
	/>
<path class="st7" d="M188.9,236.2c0.1-0.6-0.3-1.1-0.8-1.3c-0.6-0.1-1.1,0.3-1.3,0.8l-13.6,65.8c-0.1,0.6,0.3,1.1,0.8,1.3
	c0.6,0.1,1.1-0.3,1.3-0.8L188.9,236.2z"/>
<path class="st4" d="M327.9,353l-13.3-36.9l-36.2,8.4l-43.3,26.5c2.4,4.1,4.1,7.6,10.2,7.9c-3.1,3-8.7,4.3-10.8,6.3
	c2.9,7,15.2,5,17,4.1c11,11.8,30.5-2.1,37.9-4.6C293.9,365.3,319.5,362.7,327.9,353L327.9,353z"/>
<path class="st0" d="M282.2,351.1c0.5-0.3,0.6-1,0.3-1.5s-1-0.6-1.5-0.3l-30.1,19.3c-0.5,0.3-0.6,1-0.3,1.5c0.3,0.5,1,0.6,1.5,0.3
	L282.2,351.1z"/>
<path class="st0" d="M277.6,339.5c0.5-0.4,0.6-1,0.2-1.5c-0.4-0.5-1-0.6-1.5-0.2c-3.5,2.6-12.1,8.2-20.7,13.6
	c-9.9,6.2-19.7,12.1-21.6,13c-0.5,0.2-0.8,0.9-0.5,1.4c0.2,0.5,0.9,0.8,1.4,0.5c2-0.9,12-6.9,21.9-13.2
	C265.4,347.8,274.1,342.2,277.6,339.5L277.6,339.5z"/>
<path class="st0" d="M272,329.8c0.5-0.3,0.7-1,0.4-1.5c-0.3-0.5-1-0.7-1.5-0.4l-36.3,22.2c-0.5,0.3-0.7,1-0.4,1.5
	c0.3,0.5,1,0.7,1.5,0.4L272,329.8z"/>
<path class="st4" d="M175,188.9c-4.1,2.3-5.9,6.8-4.1,10.1c1.8,3.3,6.7,4.1,10.8,1.8c4.1-2.3,5.9-6.8,4.1-10.1
	C183.9,187.4,179.1,186.6,175,188.9z"/>
<path class="st0" d="M295.8,374.3c0.6,0,1.1-0.5,1.1-1.1c0-0.6-0.5-1.1-1.1-1.1H98c-0.6,0-1.1,0.5-1.1,1.1c0,0.6,0.5,1.1,1.1,1.1
	H295.8z"/>
<g>
	<path class="st8" d="M229.6,179.6c0,9.1,0,18.3,0,27.4c0,0.1-0.1,0.3-0.1,0.4c-0.7,4.2-3,7.1-7,8.5c-0.8,0.3-1.7,0.4-2.5,0.6
		c-6.4,0-12.9,0-19.3,0c-0.1,0-0.3-0.1-0.4-0.1c-1-0.3-2-0.4-2.9-0.9c-4.1-2-6.2-5.3-6.2-9.9c0-8.5,0-17,0-25.5c0-0.2,0-0.4,0-0.6
		c0.2,0,0.4,0,0.6,0c6.4,0,12.8,0,19.1,0C217.1,179.6,223.3,179.6,229.6,179.6z"/>
	<path class="st8" d="M178.5,195.2c0.2-0.8,0.3-1.5,0.6-2.3c1.4-3.6,4.2-5.6,8-6c0.7-0.1,3.2,0,3.9,0c0,2,0,4,0,6.1
		c-0.5,0-2.8,0-3.2,0c-1.8,0-3.2,1.4-3.2,3.1c0,1.7,1.4,3,3.2,3c0.5,0,2.5,0.1,3,0.1c0,2,0,4.1,0,6.1c-2.8,0.2-6.9-0.4-9.1-2.2
		c-1.7-1.5-2.8-3.4-3.1-5.7c0-0.1-0.1-0.3-0.1-0.4C178.5,196.4,178.5,195.8,178.5,195.2z"/>
	<path class="st9" d="M203.4,161.1c0,1.1-0.2,2.1-0.7,3c-0.6,1.2-0.6,2.4,0,3.6c1,2,0.9,4,0,6c-0.3,0.6-0.4,1.2-0.6,1.8
		c-1.1,0-2.2,0-3.4,0c0-1,0.1-2,0.6-2.8c0.7-1.3,0.7-2.6,0-3.9c-0.9-1.9-0.8-3.8,0-5.8c0.3-0.6,0.4-1.3,0.6-1.9
		C201,161.1,202.2,161.1,203.4,161.1z"/>
	<path class="st9" d="M213.5,156.8c-0.1,1.5-0.3,2.9-0.8,4.2c-0.6,1.4-0.5,2.9,0.1,4.3c0.8,2,0.9,4.1,0.5,6.2
		c-0.1,0.6-0.3,1.2-0.5,1.7c-0.2,0.7-0.4,1.4-0.6,2.2c-1.1,0-2.3,0-3.5,0c-0.1-1.3,0.1-2.5,0.6-3.7c0.7-1.7,0.7-3.3,0-5
		c-0.9-2.4-0.9-4.9,0-7.4c0.3-0.8,0.4-1.7,0.6-2.5C211,156.8,212.3,156.8,213.5,156.8z"/>
	<path class="st9" d="M223.3,161.1c0.1,1.1-0.2,2.1-0.7,3c-0.6,1.2-0.6,2.4,0,3.6c1,2,0.9,4,0,6c-0.3,0.6-0.4,1.2-0.6,1.8
		c-1.1,0-2.2,0-3.4,0c0-1,0.1-2,0.6-2.8c0.7-1.3,0.7-2.6,0-3.9c-0.9-1.9-0.8-3.8,0-5.8c0.3-0.6,0.4-1.3,0.5-1.9
		C220.9,161.1,222.1,161.1,223.3,161.1z"/>
</g>
<g>
	<path class="st10" d="M153.2,196.3c6.4-3.1,23.9-4.6,33.6-2.9c5.4,0.9,2.7,11.5-0.4,12.4c2.3,3.5,2.4,9.5-0.7,14
		c1.8,3.3,0.9,10-2.2,12.9c-3.3,11.4-9,11.9-15.3,12.3l0.3,104.5c-61.7-1.4-48.1-72.9-28-122.1L153.2,196.3L153.2,196.3z"/>
	<path class="st0" d="M186.3,206.8c0.6,0,1.1-0.4,1.2-1c0-0.6-0.4-1.1-1-1.2c-3.3-0.3-7.5-0.1-11.6,0.3c-5.2,0.5-10.3,1.3-13,2
		c-0.6,0.1-0.9,0.7-0.8,1.3c0.1,0.6,0.7,0.9,1.3,0.8c2.6-0.7,7.5-1.5,12.7-1.9C179,206.7,183.1,206.5,186.3,206.8z"/>
	<path class="st0" d="M185.6,220.8c0.6,0,1.1-0.4,1.2-1c0-0.6-0.4-1.1-1-1.2c-3.3-0.3-7.1-0.1-10.9,0.3c-5,0.5-9.8,1.4-12.5,2.1
		c-0.6,0.1-0.9,0.7-0.8,1.3c0.1,0.6,0.7,0.9,1.3,0.8c2.7-0.7,7.3-1.5,12.2-2C178.7,220.7,182.5,220.6,185.6,220.8L185.6,220.8z"/>
	<path class="st0" d="M183.5,233.8c0.6,0,1.1-0.5,1.1-1.1c0-0.6-0.5-1.1-1.1-1.1c-3.6,0-7.4,0.3-11,0.7c-3.9,0.4-7.5,1.1-10,1.7
		c-0.6,0.1-0.9,0.7-0.8,1.3c0.1,0.6,0.7,0.9,1.3,0.8c2.5-0.6,5.9-1.2,9.7-1.6C176.2,234.1,180,233.8,183.5,233.8L183.5,233.8z"/>
</g>
<path class="st11" d="M197.9,258.5h-154L98,373.2h154L197.9,258.5z"/>
<path class="st0" d="M197.7,257.4H42l55.1,116.9h156.4c-18.4-39-36.7-78-55.1-116.9H197.7z M45.4,259.5H197l53,112.6H98.5
	L45.4,259.5z"/>
<path class="st0" d="M147.8,325c-5,0-9.1-4.1-9.1-9.1c0-5,4.1-9.1,9.1-9.1c5,0,9.1,4.1,9.1,9.1C156.9,320.9,152.8,325,147.8,325z"/>
<path class="st12" d="M573,1193.6c1.5,1.1,2.9,2.2,4.5,3.2c8.5,4.9,11.3,10.5,9.4,18.9c-1.5,6.8-9.3,13.4-17.2,13.8
	c-5.3,0.3-10.6,0.8-15.8-1.3c-2.4-1-5.4-1.2-7.9-0.1c-5.1,2.2-7.1-0.9-8.8-4.6c-1.5-3.4-2.7-7-4.4-11.6c-5.4,11.8-15.4,15.4-26,17.2
	c-11.3,1.9-28.3-5.2-31.4-21.6c-2.1-11.2-0.3-21.6,8.6-29.2c8.5-7.3,18.7-10,29.8-6.2c8.1,2.8,13.3,8.2,15,16.8
	c1,5.3-0.1,7.8-5.2,9.7c-7.3,2.7-14.7,5.4-22.1,7.8c-3.4,1.1-3.1,2.1-0.9,4.2c5.7,5.2,12.3,5.1,18.8,0.8c2.9-1.9,6.2-5.6,10.8-2.7
	c1.5,1,1.4-0.5,1.8-1.3c2.4-4.3,4.8-4.8,8.7-1.9c4.9,3.7,8.3,9.2,14.5,11.2c2.7,0.9,5.3,2,8.2,1.7c1.8-0.2,3.8-0.6,4.3-2.8
	c0.5-2.4-1.7-3.1-3.3-3.7c-4.5-1.7-9.1-3.1-13.6-4.8c-2.5-0.9-4.9-2.1-7.2-3.5c-7.4-4.4-10.2-10.5-8.6-18
	c1.3-6.3,8.3-12.2,15.7-12.8c4.6-0.4,9.3-0.7,13.8,1.2c1.9,0.8,4.2,1.3,5.8,0.2c3.6-2.4,5.7-0.3,7.4,2.2c2.4,3.6,4.5,7.3,6.4,11.2
	c1.1,2.4,1.6,5.2-0.9,7.3c-2.6,2.2-4.6,0.4-6.7-0.9c-0.8-0.5-1.8-0.8-2.7-1.2c-3.6-5.6-9.2-7.9-15.4-8.7c-1.1-0.1-2.8-0.7-3.1,1.9
	c-0.2,2.1,0.5,2.5,2,3.1C562.4,1191,567.4,1193.2,573,1193.6z M508.6,1187.6c-0.4-1.8-1.6-4-4.3-4.7c-3.5-0.9-6.6,0.3-8.2,3.2
	c-1.5,2.8-3.9,6.3-2.1,9.2c1.5,2.5,4.5-0.1,6.8-0.7c2-0.6,4-1.6,5.9-2.6C508.1,1191.3,508.9,1190.1,508.6,1187.6z"/>
<path class="st12" d="M-22,1279.7c-3.6,3.4-7.9,2.8-12.2,1.9c-4.7-1-9.4-2.1-14.1-3.1c-2.5-0.5-4.4-1.7-4.7-4.4
	c-0.3-2.7,0.7-4.6,3.3-5.4c3.6-1.2,4.4-4.5,5.1-7.5c1.3-5.1,2-10.4,3.1-15.6c0.5-2.4-0.4-4.1-2-5.8c-3.3-3.7-2.8-7,1.8-9
	c5.2-2.3,10.8-3.2,16.5-3.9c2.6-0.3,4.5,1.2,5.5,3.5c1,2.5,2.3,2.4,4.6,1.7c9.3-2.7,17.5-1.6,23.2,7.3c1.1,1.8,2.2,1.4,3.8,0.7
	c17.3-7.1,29.2,1,29.2,19.8c0,5.9-0.9,11.6-1.7,17.4c-0.6,4.4-0.7,8.6,2.8,12.1c1.5,1.5,2.1,3.4,0.8,5.4c-1.3,2-3.2,3.1-5.5,2.5
	c-6.8-1.5-13.6-3.2-20.3-4.9c-2.4-0.6-4.4-1.9-4.6-4.6c-0.1-2.5,1.6-3.9,3.7-4.8c1.8-0.7,3.3-1.6,3.5-3.8c0.7-6.3,1.5-12.6,2-18.9
	c0.3-3.8-0.5-7.8-5.1-8.4c-4.5-0.6-6.4,3-7.4,6.7c-1.2,4.3-2.1,8.7-2.9,13.2c-0.6,3.3-0.7,6.6,1.6,9.5c1.5,2,1.9,4.5,0.3,6.5
	c-1.7,2.2-3.9,2.3-6.7,1.5c-4.6-1.3-9.2-2.8-14.1-3C-17.1,1286.2-20.6,1284.2-22,1279.7c2.3-3.1,7.1-3.9,8.2-7.7
	c1.9-6.3,3.2-12.9,4.4-19.4c0.5-2.5,0.7-5.7-2.8-6.6c-3.3-0.9-6.7-0.8-9,2.4c-1.9,2.6-2.5,5.6-3.2,8.8
	C-26.1,1265-27.9,1272.7-22,1279.7z"/>
<path class="st13" d="M207.9,1348.5c0-14,9.2-25.4,22.2-28.2c3.4-0.7,6.6-2,10.2-0.6c1.7,0.7,2.6-0.7,2.1-2.2
	c-1.1-3.2-1.5-6.8-5.9-7.8c-5-1.2-6.1-5.2-2.4-8.9c4.1-4.2,9-7.5,14.3-10c4.3-2.1,7.7-0.1,9.1,5.4c2,7.7,3.6,15.5,5.5,23.3
	c2.3,9.5,4.7,19,6.9,28.6c0.7,3,2.7,4.3,5.3,5.5c4.4,2.1,5,5.1,1.6,8.6c-4.2,4.4-9.8,6.8-15.1,9.6c-1.6,0.8-3.6,0.5-4.7-0.8
	c-2.3-2.8-3.9-1.5-6,0.3c-14.8,12.6-35.2,6.6-41-12.1C208.8,1355.5,207.4,1351.9,207.9,1348.5z M227.1,1343.4
	c0.8,5.2,2.5,11,7.6,15.2c2.9,2.4,6.1,3.4,9.7,2c3.6-1.4,5.2-4.5,5.5-8.2c0.3-4.9-1.3-9.6-3.3-13.9c-2.3-5-8.5-7.8-12.8-6.6
	C230,1332.9,227,1337.7,227.1,1343.4z"/>
<path class="st13" d="M395.9,1312.4c-0.5,14.1-10.9,28.2-28.1,28.4c-1.9,0-5.2-1.4-5.5,1.4c-0.3,2.8,1,5.8,4.8,6.6
	c2.5,0.5,4.9,2.1,4.8,5c-0.1,2.9-2.2,4.9-5.1,5.4c-6.1,1-11.8,3.2-17.7,5c-2.7,0.8-5.4,0.8-7.3-1.7c-1.8-2.4-0.8-4.7,0.8-6.8
	c1.7-2.2,1.5-4.8,0.8-7.2c-3.1-11.2-6.4-22.3-9.5-33.5c-0.7-2.6-2.5-3.7-4.7-4.7c-5.2-2.4-6-6-1.6-9.5c4.3-3.4,6.9-8.7,12.7-10.5
	c1.9-0.6,3.5-1.4,5,0.1c2.2,2.1,3.7,1.5,5.8-0.4c15.7-14.5,37.1-8,42.6,12.9C394.8,1306.1,396.2,1309.4,395.9,1312.4z M354,1309.8
	c-0.2,6,1.6,10.9,5.2,15c3.5,3.9,8.7,5.2,12.6,2.8c4.2-2.5,5.5-6.7,4.8-11.2c-0.7-4.1-2.4-7.9-4.8-11.4c-3.5-5.2-7.8-7.4-12-5.8
	C354.8,1301.1,353.6,1305.2,354,1309.8z"/>
<path class="st12" d="M392.4,1244.7c-1.4,0.6-4.3-1.5-4.9,1.2c-0.5,2.6,1.1,5.1,3.7,6.5c1.3,0.7,2.8,1.3,3.8,2.2
	c2.8,2.5,2.4,6.5-1.2,7.6c-7.1,2.2-14.4,3.8-21.7,5.4c-2.2,0.5-4.4-0.1-5.6-2.4c-1.1-2-0.3-4.1,1-5.6c2.4-2.6,1.8-5.2,0.9-8.3
	c-2.8-10.4-5.2-20.9-7.6-31.4c-0.7-3.2-1.5-5.7-5.3-6.9c-4.5-1.5-5.2-5.4-1.8-9c3.4-3.6,7.4-6.7,11.6-9.4c1.9-1.2,4.4-1.9,6.2-0.8
	c3.5,2.2,5.2,0.6,8-1.6c12.3-9.8,31.2-8.8,39.6,11.6c5.9,14.2,1.5,29.3-10.4,36.4C403.9,1243.3,398.5,1244.8,392.4,1244.7z
	 M388.6,1203c-4.1,0.5-7.6,2.1-8.3,6.6c-1.2,7.3,0.7,14,5.1,19.7c4.5,5.8,13.1,5,15.9-1c3.2-6.9-0.3-19-6.6-23.3
	C392.8,1203.6,390.7,1203.3,388.6,1203z"/>
<path class="st13" d="M651.9,1333.8c-7.4,0.8-14.7-1.8-21.2-6.5c-9.2-6.6-13.3-15.8-11.4-27c2.1-11.7,8.9-19.9,20.4-23.6
	c15.2-4.8,33.5,2.4,40.4,15.8c9.2,17.8-4.5,40.8-24.5,41.3C654.7,1333.8,653.7,1333.8,651.9,1333.8z M662,1303.8
	c-0.2-4.5-0.9-8.9-3.6-12.7c-3.3-4.6-8-5.5-12-2.3c-7.5,5.9-8.4,23.8-1.6,30.6c4.8,4.8,10.8,3.9,13.9-2.2
	C660.8,1313,661.9,1308.5,662,1303.8z"/>
<path class="st12" d="M79.6,1300.9c-14.4-0.2-24-4.5-30.3-15.6c-7.6-13.8-1-31.6,13.1-39.1c11.3-6,29-4.3,38.5,4
	c14.9,12.9,10.9,38.9-7.3,47.3C88.5,1300,83.1,1301.4,79.6,1300.9z M67,1270.2c0,5.5,1.8,10.9,4.8,15c4,5.3,12,5.2,15.1-0.1
	c5.6-9.5,1.5-22.5-3.7-27.9c-5.1-5.3-11.5-4-14.3,2.8C67.5,1263.3,66.8,1266.7,67,1270.2z"/>
<path class="st12" d="M675.1,1193.6c15.5-1.4,28.9,9.9,32.2,18.7c6.2,16.4-3.4,35.2-20.9,39c-17,3.7-35.8-6.7-40.2-21.4
	c-3.9-12.8,6.2-35.3,24.9-36.3C672.6,1193.5,674.3,1193.6,675.1,1193.6z M688.8,1223.7c0-5.7-1.8-12.1-3.7-14.7
	c-3.9-5.3-9.6-5.4-13.7-0.4c-6.1,7.5-5.7,16-3.7,24.6c0.9,3.9,4.4,6.4,8.3,7.1c3.9,0.7,6.5-2,8.5-5
	C687.1,1231.3,688.5,1226.9,688.8,1223.7z"/>
<path class="st13" d="M169,1353.6c0.6,0.6,1.1,1.2,1.8,1.6c6.6,3.7,10.9,8.8,9.9,16.9c-1.1,8.5-7,12.8-14.5,15.5
	c-4.9,1.7-10,2.4-15.2,2.1c-2.8-0.1-6-0.5-8.4,0.6c-5.1,2.3-7.9,0.2-10.2-3.8c-2.2-3.7-4.4-7.4-6.4-11.3c-1.2-2.3-1.6-4.9,0.8-6.8
	c2.4-2,5-1.4,7.4,0.2c2.5,1.7,4.9,3.4,7.3,5.2c4.2,3.1,9,4.2,14.1,3.9c2.6-0.1,5.8-0.3,6-3.2c0.2-3.1-3.1-3.5-5.5-3.7
	c-6.3-0.5-12.4-2.1-18.5-3.9c-8-2.4-12.8-8.5-12.8-15.9c0-7.1,5.3-14,12.8-16c5.4-1.5,10.8-3.5,16.6-1.1c1.3,0.5,2.6,0.3,3.8-0.4
	c4.4-2.8,7.5-0.8,10.2,2.8c1.7,2.3,3.4,4.5,5.1,6.8C177.6,1348.5,175.9,1352.6,169,1353.6c-2.9-3-7.1-3.9-10.2-6
	c-3.9-2.7-7.5-2.9-11.6-2.8c-1.5,0-3.2,0.5-3.1,2.5c0.1,1.6,1.6,2,2.9,2.3C154.3,1350.9,161.7,1352.3,169,1353.6z"/>
<path class="st13" d="M594,1321.7c-4.2,0.1-8.3,0.1-12.2-1.6c-1.9-0.8-4.2-1.6-6.3-0.9c-5.5,1.8-8.2-1-9.7-5.7
	c-1.4-4.1-2.7-8.2-3.7-12.4c-0.6-2.3-0.1-4.9,2.3-6.1c2.5-1.3,4.9-0.5,6.8,1.4c2.6,2.6,5.1,5.2,7.6,7.9c3.9,4,8.6,6.3,14.3,5.9
	c1.6-0.1,3.6-0.4,4.1-2.3c0.5-2.1-1.5-2.8-3-3.4c-4.9-2.1-9.8-4.1-14.7-6.2c-4.2-1.8-8-4.3-10.8-7.8c-3.6-4.5-5.1-9.5-2.3-15.3
	c3-6.2,7.9-9.7,14.6-10.6c8.4-1.1,16.3,2.7,24.7,2.2c1.4-0.1,2.6,1,3.3,2.1c2.6,4.2,5.1,8.6,6.4,13.4c0.7,2.4,0.7,4.8-1.8,6.1
	c-2.3,1.2-4.6,0.6-6.4-1.2c-3.2-3.1-6.7-5.9-10.4-8.5c-2.2-1.5-4.5-2.1-6.9-2.5c-1.7-0.3-3.6-0.3-4.2,1.7c-0.6,1.9,1.1,2.7,2.4,3.3
	c5,2.2,10.1,4.1,15.1,6.4c4.1,1.9,8.2,3.8,10.8,7.7c7.4,11.2-0.2,25.4-14,26.4C598,1321.9,596,1321.7,594,1321.7z"/>
<path class="st12" d="M330.9,1222.7c7-0.1,14-0.6,20.3,3.6c6,4,8.6,11.4,6.5,18.2c-3.5,11.4-13.1,14.1-23,16.2
	c-4.2,0.9-8.5,0.8-11.9,4.3c-2.3,2.4-4.9,0.7-6.6-1c-3.7-3.8-7.2-7.8-10.6-11.9c-1.7-2-2.5-4.4-0.3-6.7c2-2.2,4.5-2.1,6.9-0.8
	c4.1,2.2,8.6,3.4,13.1,4.8c4,1.2,7.5,0.5,11.2-0.8c1.9-0.7,4-1.6,3.7-4c-0.3-2.5-2.6-2.6-4.7-2.8c-6.5-0.5-12.8,1.1-19.4,0.2
	c-9.3-1.3-15-5.1-16.8-12.8c-1.7-7.1,2.3-14.5,10-18.9c2.5-1.4,5.1-2.3,8-2.7c4.3-0.6,8.5-1.4,12.3-3.8c0.6-0.3,1.2-0.6,1.8-0.8
	c3.9-0.9,17.3,10.2,17.2,14.2c-0.1,2.9-3.4,4.9-7.3,4c-5.4-1.4-10.5-4.4-16.4-3.5c-2.8,0.4-7.4-0.6-7.4,3c0,3.8,4.5,1.6,7,2
	C326.6,1223,328.8,1222.7,330.9,1222.7z"/>
<path class="st13" d="M505,1298.7c1.8-7.1,4.9-8.2,10.3-3.2c4.6,4.2,9.5,7.8,15.3,10c1.8,0.7,3.5,1.1,5.4,0.9c2.2-0.3,4.7-1.2,5-3.4
	c0.4-2.5-2.3-3-4.1-3.6c-5.8-2.2-12-2.9-17.6-5.6c-1.5-0.7-3-1.4-4.4-2.3c-5.4-3.6-9.5-8.3-8.5-15.2c1.2-7.8,7.4-13.4,15-14.8
	c4-0.7,7.9-0.8,11.9-0.2c3.2,0.5,6.6,1.4,9.8-0.1c0.4-0.2,1-0.2,1.5-0.1c4.4,0.2,14.1,14.5,12.6,18.6c-1,2.9-4.4,3.8-7.4,2.1
	c-4.3-2.5-7.9-6.2-12.6-8.1c-2.5-1-5-1.9-7.7-1.8c-1.4,0.1-2.8,0.5-3.1,2c-0.4,1.7,1,2.3,2.3,2.7c4.4,1.4,8.9,2.6,13.3,4.1
	c7.2,2.5,14.6,4.9,17.7,13.2c2.7,7.1-1.7,17.4-8.7,20.5c-8.3,3.7-16.8,3.6-25.4,1.9c-2-0.4-3.9-0.5-5.8,0.4c-4.4,2-7-0.1-8.8-3.9
	C508.9,1308.1,507,1303.3,505,1298.7L505,1298.7z"/>
<path class="st13" d="M88.2,1333.4c5.4,1.6,11.1,0.8,16.8,0.9c3.4,0,5.7,1.4,7.2,4.4c1.8,3.5,4.1,6.8,5.5,10.6
	c1,2.7,0.1,4.6-1.7,6.2c-2.1,1.8-4.1,0.6-5.8-0.8c-3.6-3-7.3-5.8-11.5-7.9c-2.6-1.3-5.2-2.3-8.1-1.9c-1.5,0.2-3.3,0.6-3.6,2.2
	c-0.3,1.7,1.6,2,2.7,2.4c6.1,2.2,12.2,4.2,18.4,6.4c8.1,2.9,12.8,8.6,12.9,15.9c0.2,8.8-5.8,15.9-15,17.7
	c-7.1,1.4-14.2,1.4-21.2-0.8c-1.6-0.5-2.9-0.5-4.2,0.5c-4,2.9-6.7,0.6-8.5-2.7c-2.2-4.1-3.8-8.5-5.5-12.8c-1.1-2.8-1.5-5.8,1.5-7.6
	c3-1.8,5.6-0.6,7.9,1.9c4.5,4.8,9.5,8.9,16,10.7c1.4,0.4,2.9,0.7,4.4,0.7c2.3,0,4.5-0.9,5-3.3c0.5-2.7-2.1-3.1-3.9-3.7
	c-5.8-1.9-11.9-3.1-17.5-5.8c-2.2-1.1-4.6-2.2-6.3-3.9c-3.9-3.7-7.7-7.8-6.3-13.8c1.6-7,5.9-11.9,12.9-14
	C82.7,1334.1,85.4,1333.9,88.2,1333.4z"/>
<path class="st12" d="M612.4,1179.5c4.1-0.3,8.4,0.5,12.5,2c1.1,0.4,2.3,0.8,3.4,0.7c6.2-0.4,8.7,1.1,10.9,6.6c1,2.5,2,4.9,2.9,7.4
	c1,2.8,2.3,6.2-0.9,8.1c-3.1,1.8-6.1,0.2-8.2-2.7c-2.6-3.6-5.8-6.4-9.7-8.4c-1.5-0.8-3-1.3-4.6-1.8c-1.9-0.6-4.3-1.2-5.3,1
	c-1.1,2.4,1.5,3,3,3.8c4.8,2.4,9.6,4.5,14.4,6.9c11.4,5.5,15.8,16.5,9.9,25.7c-4.7,7.4-12.5,9-20.6,8.6c-4.6-0.2-9.3-1.2-13.5-3.2
	c-2.2-1.1-4.2-1.4-6.6-0.3c-3.2,1.5-5.6-0.3-6.8-3.1c-2.3-5.3-3.5-11.1-4.6-16.8c-0.5-2.8,1.2-4.7,3.7-5.8c2.6-1.2,4.1,0.5,5.5,2.2
	c2.2,2.5,4.3,5.1,6.3,7.7c3.4,4.2,7.8,6.5,13,7.8c2.9,0.7,5.3-0.1,6.3-2.6c1-2.5-1.8-3.3-3.4-4.2c-5.8-3.2-12.4-5-17.8-8.9
	c-8.4-6.1-10.8-12-8.5-19.4C595.3,1185,602.9,1178.4,612.4,1179.5z"/>
<path class="st13" d="M504.9,1298.6c0.6,3.9-0.5,7.1-3,10.1c-10.8,13.3-33.9,15.3-46.2,3.8c-10.7-9.9-12.1-29.9-1.9-40.9
	c10.2-11,27.7-14.1,39.4-4.9c4.6,3.6,7,8.4,8.4,13.8c1,4-1.8,6.4-4.9,7.8c-5.7,2.7-11.6,4.9-17.5,7.3c-0.5,0.2-1,0.2-1.4,0.5
	c-1.8,1.3-5.7,1.2-5.4,3.5c0.4,3.1,3.9,4.5,6.8,4.8c5.8,0.6,11.6,0.9,16-4.5C497.9,1296.8,501.5,1297.1,504.9,1298.6
	C505,1298.7,504.9,1298.6,504.9,1298.6z M467,1282c-0.1,5.3,0.7,5.9,5.4,3.9c2-0.8,3.9-1.7,5.9-2.6c2.5-1.1,2.8-3,1.9-5.3
	c-1.3-3.4-4-4.5-7.2-4C468.4,1274.7,466.9,1278.1,467,1282z"/>
<path class="st13" d="M36.3,1327.5c13-0.1,23.9,7.2,26.3,19.7c1.4,7.3-0.7,11-7.9,11.9c-6.4,0.8-12.7,2.8-19.2,2.7
	c-2,0-4.4,0.1-5.2,2.3c-0.9,2.5,1.4,3.8,3.1,5.1c5.1,3.8,10.5,4.7,16.4,1.8c0.7-0.4,1.6-0.6,2.3-0.9c3.1-1.4,6.5-2.9,8.8,1
	c2.1,3.7-1,5.9-3.3,7.9c-14.5,12.5-40.2,7.7-48.2-8.9C-0.2,1350,14.1,1327.5,36.3,1327.5z M36,1339.6c-4.8,0-9.3,5.4-8.5,10
	c0.1,0.6,0.5,1.2,1,1.5c1.2,0.8,13.1-1.8,13.8-2.9c0.8-1.4,0.7-3,0.1-4.3C41.2,1341,39,1339.4,36,1339.6z"/>
<path class="st13" d="M303.5,1301.4c10.8,0,18.5,4.7,21.8,13.4c1.4,3.8,1.7,7-3,9.5c-6.7,3.7-12.8,8.4-19.2,12.5
	c-3.1,2-2.4,3.4,0.4,4.9c5.9,3,14.2,1.1,18.9-4.6c2.4-2.8,4.8-6.9,8.8-4.2c3.8,2.6,1.9,6.8,0.1,10.3c-7.2,14.2-29.5,21.1-42.9,13.2
	c-14.9-8.8-19.2-29.4-9.2-43.6C284.1,1306.1,293.9,1301.5,303.5,1301.4z M291.5,1323.8c-0.1,1.2-0.3,3.3,1.5,4.3
	c2,1.2,3.3-0.9,4.7-1.7c2-1.1,4-2.4,5.8-3.7c3-2.2,2.9-5.3-0.4-7.1c-2.6-1.4-5.5-1.7-8.1-0.1C292.4,1317.2,291.3,1320,291.5,1323.8z
	"/>
<path class="st12" d="M162.9,1266.6c0-14,13.4-27.7,27.3-28.1c9.8-0.3,18.6,1.5,23.9,10.9c4.8,8.4,3.2,12.9-5.7,16.8
	c-5.3,2.3-10.7,4.6-16,7c-1.4,0.6-3.6,0.9-3.6,3c0,1.8,1.9,2.7,3.3,3.4c5.3,2.9,10.6,2.6,15.6-0.7c1.9-1.3,3.8-2.7,5.5-4.3
	c2.1-2,4.2-3.5,6.9-1c2.4,2.3,2.3,5.1,0.6,7.7c-3,4.5-6.7,8.4-11.5,10.8c-9.2,4.7-18.7,6.6-28.8,2.5
	C168.9,1289.9,163.7,1279.1,162.9,1266.6z M189,1250.6c-3.1,0.4-5.1,3.6-6.6,7.1c-0.8,2-1.2,4.4,0.5,6.1c1.7,1.5,3.3-0.3,4.9-1
	c1.5-0.7,3.2-1,4.5-2c1.6-1.3,5.2-1.2,4.2-4.5C195.8,1253.3,193.7,1251,189,1250.6z"/>
<path class="st12" d="M274.5,1278.6c-16.4-0.2-27-10.1-29.1-28c-1.3-10.6,7-24.9,20.4-29.3c13-4.3,22.9,0.7,29,8.2
	c5.2,6.5,4,11.3-3.2,15.3c-6.1,3.4-11.8,7.3-17.7,11.1c-3,1.9-1.8,3.3,0.5,4.7c5.5,3.1,13.3,2,18-2.6c1.3-1.3,2.5-2.7,3.8-4
	c1.7-1.7,3.4-4.2,6.3-2.1c2.9,2,3.2,4.9,1.7,8c-2.7,5.7-6.6,10.4-12.3,13.3C286.2,1275.9,280.8,1279.3,274.5,1278.6z M263.2,1240.5
	c0.1,0.9,0.5,2.2,0.5,3.5c0.2,3.8,1.5,4.7,4.7,2.1c2.3-1.9,4.9-3.3,7.4-5c1.9-1.2,2.4-2.7,1.1-4.6c-2.1-2.8-4.9-4.6-8.5-3.5
	C265.1,1234.1,263.2,1236.4,263.2,1240.5z"/>
<path class="st13" d="M418.5,1277.2c5.1-6,10.2-11.1,18.8-9.1c5.1,1.2,7.5,4,7.1,9.2c-0.3,3.5-0.2,7-1.3,10.4
	c-1.7,5-5.6,6.2-9.6,2.8c-6.1-5.3-9.2-4.5-11,3.4c-1.6,6.7,1.2,13.1,2.7,19.5c0.4,1.9,2.5,1.9,4,2.5c2.2,0.9,4.4,2.1,4.3,4.9
	c-0.2,2.6-2.1,4.2-4.5,4.7c-7.3,1.4-14.7,2.4-21.9,4.3c-2.1,0.6-4-1.3-5.3-3.2c-1.3-1.9-0.4-3.5,0.9-4.9c3.2-3.2,2.3-7.2,1.8-10.9
	c-0.5-4.3-1.7-8.4-2.7-12.6c-0.7-2.9-2-4.9-4.9-6.4c-4.7-2.3-4.9-6.6-0.7-9.9c3.5-2.8,7.2-5.3,10.9-7.8
	C412.3,1270.7,414.3,1271.3,418.5,1277.2z"/>
<path class="st12" d="M472.1,1185.5c0.1,3.7-0.5,7.3-2.5,10.6c-2.4,4-5.1,4.3-8.5,1.3c-2-1.8-3.4-5.3-6.8-4.1
	c-3.7,1.3-4.6,5.1-5,8.6c-0.7,5.7,0.6,11.2,1.7,16.8c0.5,2.4,2.5,2.9,4.4,3.6c2.3,0.9,3.5,2.5,3.2,5c-0.3,2.4-1.6,4-4.1,4.4
	c-7.2,1.1-14.4,2.3-21.6,2.9c-4.6,0.4-7.2-3.8-4.6-7.2c3.2-4.1,2.8-8.4,2.4-12.8c-0.4-4.4-2.1-8.7-2.1-13.3c0-1.6-1-2.7-2.4-3.6
	c-6.9-4.7-6.4-9.6,1.1-13.6c2.9-1.6,5.9-3.1,8.7-4.9c3.3-2.1,6.1-1.8,8,1.6c1.6,2.9,2.5,2.2,4.5,0.2c3.5-3.6,7.5-6.5,13-6.5
	C469.2,1174.5,472.2,1177.5,472.1,1185.5z"/>
<path class="st13" d="M11.5,1302.5c-0.4,3.4-1.2,6.5-1.9,9.5c-3.9,17.2-7.5,34.4-11.4,51.5c-0.5,2.3,0.6,3.5,1.8,4.8
	c1.6,1.9,2.7,3.9,1.1,6.3c-1.6,2.3-3.9,3.4-6.5,2.6c-5.8-1.9-11.8-3.3-17.8-4.4c-2.5-0.4-4.9-1.7-5.2-4.6c-0.3-2.7,1.5-4.3,3.8-5.3
	c3-1.3,3.8-4.1,4.4-6.8c2.9-12.3,5.9-24.5,8.6-36.8c0.9-3.9,1.2-7.8-1.6-11.4c-2.7-3.4-1.5-6.6,2.7-8.2c5-1.9,10.3-2.6,15.5-3.5
	C8.9,1295.5,11.7,1298.4,11.5,1302.5z"/>
<path class="st12" d="M127.4,1300.7c-3.2,0-6.3,0-9.5,0c-2.1,0-4-0.4-5-2.6c-1.1-2.3-0.4-4.2,1.2-6c1.8-1.9,3.9-3.5,3.8-6.7
	c-0.3-7.1,0.8-14.4-2.2-21.2c-0.3-0.7-1.1-1.2-1.8-1.7c-5.2-4.4-5.4-6.8,0.4-10.6c4-2.6,8.5-4.6,13-6.3c2.7-1,5.9-0.7,7.3,2.5
	c1.4,3.1,2.8,1.9,4.5,0.5c3.7-3,7.6-5.4,12.6-5.2c6.7,0.2,11,4.8,10.2,11.4c-0.4,3.3-1.1,6.5-2.7,9.6c-3.1,6-6.6,6.4-11,1.2
	c-4.9-5.8-6.9-5.4-10.4,1.6c-3,6.1-1.7,12.4-1.3,18.6c0.1,2.4,2.4,3.4,4.3,4.6c2,1.3,4,3,3.2,5.6c-0.8,2.5-3,4.1-5.7,4.2
	c-3.7,0.2-7.3,0-11,0C127.4,1300.6,127.4,1300.7,127.4,1300.7z"/>
<path class="st14" d="M-39.2,1240.7"/>
</svg>
